{
classes = (
{
code = "u10C80 u10C81 u10C82 u10C83 u10C84 u10C85 u10C86 u10C87 u10C88 u10C89 u10C8A u10C8B u10C8C u10C8D u10C8E u10C8F u10C90 u10C91 u10C92 u10C93 u10C94 u10C95 u10C96 u10C97 u10C98 u10C99 u10C9A u10C9B u10C9C u10C9D u10C9E u10C9F u10CA0 u10CA1 u10CA2 u10CA3 u10CA4 u10CA5 u10CA6 u10CA7 u10CA8 u10CA9 u10CAA u10CAB u10CAC u10CAD u10CAE u10CAF u10CB0 u10CB1 u10CB2 u10CC0 u10CC1 u10CC2 u10CC3 u10CC4 u10CC5 u10CC6 u10CC7 u10CC8 u10CC9 u10CCA u10CCB u10CCC u10CCD u10CCE u10CCF u10CD0 u10CD1 u10CD2 u10CD3 u10CD4 u10CD5 u10CD6 u10CD7 u10CD8 u10CD9 u10CDA u10CDB u10CDC u10CDD u10CDE u10CDF u10CE0 u10CE1 u10CE2 u10CE3 u10CE4 u10CE5 u10CE6 u10CE7 u10CE8 u10CE9 u10CEA u10CEB u10CEC u10CED u10CEE u10CEF u10CF0 u10CF1 u10CF2";
name = ltrm;
},
{

glyphs = (
{
glyphname = .notdef;
layers = (
{
layerId = "10FB5B92-D81B-4903-B019-4239E442CDDF";
paths = (
{
closed = 1;
nodes = (
"1007 0 LINE",
"188 0 LINE",
"188 1424 LINE",
"1007 1424 LINE"
);
},
{
closed = 1;
nodes = (
"289 1322 LINE",
"289 102 LINE",
"905 102 LINE",
"905 1322 LINE"
);
}
);
width = 1195;
}
);
},
{
glyphname = u10C80;
layers = (
{
layerId = "10FB5B92-D81B-4903-B019-4239E442CDDF";
paths = (
{
closed = 1;
nodes = (
"881 4 LINE",
"702 4 LINE",
"702 760 LINE",
"104 760 LINE",
"104 958 LINE",
"688 1465 LINE",
"881 1465 LINE"
);
},
{
closed = 1;
nodes = (
"268 916 LINE",
"702 916 LINE",
"702 1285 LINE"
);
}
);
width = 1080;
}
);
unicode = 10C80;
},
{
glyphname = u10C81;
layers = (
{
layerId = "10FB5B92-D81B-4903-B019-4239E442CDDF";
paths = (
{
closed = 1;
nodes = (
"855 2 LINE",
"676 2 LINE",
"676 442 LINE",
"104 822 LINE",
"104 964 LINE",
"670 1463 LINE",
"855 1463 LINE"
);
},
{
closed = 1;
nodes = (
"272 904 LINE",
"676 637 LINE",
"676 1265 LINE"
);
}
);
width = 1054;
}
);
unicode = 10C81;
},
{
glyphname = u10C82;
layers = (
{
layerId = "10FB5B92-D81B-4903-B019-4239E442CDDF";
paths = (
{
closed = 1;
nodes = (
"216 1 LINE",
"8 1 LINE",
"570 756 LINE",
"44 1461 LINE",
"263 1461 LINE",
"690 869 LINE",
"1123 1461 LINE",
"1330 1461 LINE",
"805 759 LINE",
"1370 -1 LINE",
"1147 -1 LINE",
"684 639 LINE"
);
}
);
width = 1378;
}
);
unicode = 10C82;
},
{
glyphname = u10C83;
layers = (
{
layerId = "10FB5B92-D81B-4903-B019-4239E442CDDF";
paths = (
{
closed = 1;
nodes = (
"1706 841 OFFCURVE",
"1706 739 CURVE SMOOTH",
"1706 617 OFFCURVE",
"1662 502 CURVE SMOOTH",
"1623 398 OFFCURVE",
"1547 302 CURVE",
"1666 165 LINE",
"1945 282 LINE",
"2009 152 LINE",
"1615 0 LINE",
"1441 189 LINE",
"1389 140 OFFCURVE",
"1270 44 OFFCURVE",
"1200 -2 CURVE",
"1014 -2 LINE",
"944 45 OFFCURVE",
"821 143 OFFCURVE",
"769 193 CURVE",
"590 0 LINE",
"199 152 LINE",
"259 282 LINE",
"540 165 LINE",
"663 308 LINE",
"588 403 OFFCURVE",
"550 506 CURVE SMOOTH",
"499 640 OFFCURVE",
"501 742 CURVE SMOOTH",
"503 849 OFFCURVE",
"557 987 CURVE",
"663 1151 LINE",
"540 1292 LINE",
"259 1175 LINE",
"199 1307 LINE",
"590 1457 LINE",
"769 1264 LINE",
"821 1316 OFFCURVE",
"944 1414 OFFCURVE",
"1012 1459 CURVE",
"1200 1459 LINE",
"1270 1413 OFFCURVE",
"1389 1320 OFFCURVE",
"1441 1268 CURVE",
"1615 1457 LINE",
"2009 1307 LINE",
"1945 1175 LINE",
"1666 1292 LINE",
"1547 1155 LINE",
"1622 1062 OFFCURVE",
"1662 955 CURVE SMOOTH"
);
},
{
closed = 1;
nodes = (
"670 821 OFFCURVE",
"671 742 CURVE SMOOTH",
"672 635 OFFCURVE",
"736 510 CURVE SMOOTH",
"788 408 OFFCURVE",
"876 318 CURVE SMOOTH",
"966 226 OFFCURVE",
"1102 121 CURVE",
"1110 121 LINE",
"1248 226 OFFCURVE",
"1427 411 OFFCURVE",
"1472 510 CURVE SMOOTH",
"1531 641 OFFCURVE",
"1531 742 CURVE SMOOTH",
"1531 825 OFFCURVE",
"1472 946 CURVE SMOOTH",
"1420 1053 OFFCURVE",
"1338 1138 CURVE SMOOTH",
"1248 1231 OFFCURVE",
"1110 1336 CURVE",
"1102 1341 LINE",
"966 1236 OFFCURVE",
"876 1140 CURVE SMOOTH",
"784 1043 OFFCURVE",
"731 940 CURVE SMOOTH"
);
}
);
width = 2208;
}
);
unicode = 10C83;
},
{
glyphname = u10C84;
layers = (
{
layerId = "10FB5B92-D81B-4903-B019-4239E442CDDF";
paths = (
{
closed = 1;
nodes = (
"764 1 LINE",
"584 1 LINE",
"584 1230 LINE",
"222 921 LINE",
"104 1043 LINE",
"600 1464 LINE",
"748 1464 LINE",
"1245 1043 LINE",
"1127 921 LINE",
"764 1230 LINE"
);
}
);
width = 1349;
}
);
unicode = 10C84;
},
{
glyphname = u10C85;
layers = (
{
layerId = "10FB5B92-D81B-4903-B019-4239E442CDDF";
paths = (
{
closed = 1;
nodes = (
"748 5 LINE",
"600 5 LINE",
"104 426 LINE",
"222 545 LINE",
"584 239 LINE",
"584 1234 LINE",
"222 927 LINE",
"118 1047 LINE",
"600 1468 LINE",
"748 1468 LINE",
"1231 1047 LINE",
"1127 927 LINE",
"764 1234 LINE",
"764 239 LINE",
"1127 545 LINE",
"1245 426 LINE"
);
}
);
width = 1349;
}
);
unicode = 10C85;
},
{
glyphname = u10C86;
layers = (
{
layerId = "10FB5B92-D81B-4903-B019-4239E442CDDF";
paths = (
{
closed = 1;
nodes = (
"372 2 LINE",
"199 2 LINE",
"199 1465 LINE",
"378 1465 LINE",
"378 978 LINE",
"1190 1465 LINE",
"1363 1465 LINE",
"1363 2 LINE",
"1184 2 LINE",
"1184 493 LINE"
);
},
{
closed = 1;
nodes = (
"378 790 LINE",
"378 202 LINE",
"1184 676 LINE",
"1184 1275 LINE"
);
}
);
width = 1562;
}
);
unicode = 10C86;
},
{
glyphname = u10C87;
layers = (
{
layerId = "10FB5B92-D81B-4903-B019-4239E442CDDF";
paths = (
{
closed = 1;
nodes = (
"710 4 LINE",
"518 4 LINE",
"518 651 LINE",
"182 476 LINE",
"104 613 LINE",
"518 822 LINE",
"518 1467 LINE",
"710 1467 LINE",
"710 918 LINE",
"1047 1098 LINE",
"1125 958 LINE",
"710 742 LINE"
);
}
);
width = 1229;
}
);
unicode = 10C87;
},
{
glyphname = u10C88;
layers = (
{
layerId = "10FB5B92-D81B-4903-B019-4239E442CDDF";
paths = (
{
closed = 1;
nodes = (
"407 4 LINE",
"199 4 LINE",
"680 652 LINE",
"299 552 LINE",
"251 668 LINE",
"737 793 LINE",
"235 1461 LINE",
"454 1461 LINE",
"881 875 LINE",
"1314 1461 LINE",
"1521 1461 LINE",
"1084 882 LINE",
"1460 981 LINE",
"1491 859 LINE",
"1016 737 LINE",
"1561 4 LINE",
"1338 4 LINE",
"875 645 LINE"
);
}
);
width = 1760;
}
);
unicode = 10C88;
},
{
glyphname = u10C89;
layers = (
{
layerId = "10FB5B92-D81B-4903-B019-4239E442CDDF";
paths = (
{
closed = 1;
nodes = (
"836 869 OFFCURVE",
"836 749 CURVE SMOOTH",
"836 605 OFFCURVE",
"782 492 CURVE SMOOTH",
"730 383 OFFCURVE",
"607 276 CURVE",
"832 117 LINE",
"734 14 LINE",
"489 187 LINE",
"425 143 OFFCURVE",
"268 51 OFFCURVE",
"174 1 CURVE",
"73 117 LINE",
"159 161 OFFCURVE",
"229 202 CURVE SMOOTH",
"309 249 OFFCURVE",
"356 280 CURVE",
"97 465 LINE",
"206 560 LINE",
"473 371 LINE",
"569 456 OFFCURVE",
"607 541 CURVE SMOOTH",
"654 648 OFFCURVE",
"654 739 CURVE SMOOTH",
"654 831 OFFCURVE",
"606 920 CURVE SMOOTH",
"555 1016 OFFCURVE",
"465 1093 CURVE",
"206 908 LINE",
"97 1007 LINE",
"348 1183 LINE",
"290 1222 OFFCURVE",
"149 1306 OFFCURVE",
"63 1352 CURVE",
"184 1462 LINE",
"274 1414 OFFCURVE",
"423 1324 OFFCURVE",
"485 1280 CURVE",
"734 1457 LINE",
"832 1354 LINE",
"603 1190 LINE",
"719 1089 OFFCURVE",
"782 972 CURVE"
);
}
);
width = 959;
}
);
unicode = 10C89;
},
{
glyphname = u10C8A;
layers = (
{
layerId = "10FB5B92-D81B-4903-B019-4239E442CDDF";
paths = (
{
closed = 1;
nodes = (
"247 1098 OFFCURVE",
"369 1197 CURVE",
"313 1235 OFFCURVE",
"181 1311 OFFCURVE",
"104 1353 CURVE",
"225 1463 LINE",
"389 1376 OFFCURVE",
"502 1299 CURVE",
"616 1375 OFFCURVE",
"779 1463 CURVE",
"901 1356 LINE",
"857 1334 OFFCURVE",
"757 1274 CURVE SMOOTH",
"691 1235 OFFCURVE",
"638 1199 CURVE",
"763 1094 OFFCURVE",
"826 976 CURVE SMOOTH",
"884 869 OFFCURVE",
"884 744 CURVE SMOOTH",
"884 602 OFFCURVE",
"826 486 CURVE",
"769 375 OFFCURVE",
"634 264 CURVE",
"688 229 OFFCURVE",
"817 157 OFFCURVE",
"891 119 CURVE",
"787 2 LINE",
"705 46 OFFCURVE",
"562 128 OFFCURVE",
"502 168 CURVE",
"442 128 OFFCURVE",
"299 46 OFFCURVE",
"217 2 CURVE",
"217 2 OFFCURVE",
"114 119 CURVE",
"190 159 OFFCURVE",
"317 230 OFFCURVE",
"371 264 CURVE",
"237 375 OFFCURVE",
"180 487 CURVE SMOOTH",
"115 614 OFFCURVE",
"114 744 CURVE",
"114 861 OFFCURVE",
"178 976 CURVE SMOOTH"
);
},
{
closed = 1;
nodes = (
"587 1030 OFFCURVE",
"502 1099 CURVE",
"412 1024 OFFCURVE",
"352 923 CURVE SMOOTH",
"295 825 OFFCURVE",
"295 749 CURVE SMOOTH",
"295 653 OFFCURVE",
"354 536 CURVE SMOOTH",
"398 447 OFFCURVE",
"502 360 CURVE",
"606 447 OFFCURVE",
"650 537 CURVE SMOOTH",
"710 657 OFFCURVE",
"710 759 CURVE SMOOTH",
"710 828 OFFCURVE",
"652 924 CURVE SMOOTH"
);
}
);
width = 1005;
}
);
unicode = 10C8A;
},
{
glyphname = u10C8B;
layers = (
{
layerId = "10FB5B92-D81B-4903-B019-4239E442CDDF";
paths = (
{
closed = 1;
nodes = (
"741 881 OFFCURVE",
"741 738 CURVE SMOOTH",
"741 594 OFFCURVE",
"652 485 CURVE SMOOTH",
"559 372 OFFCURVE",
"348 256 CURVE",
"561 115 LINE",
"445 6 LINE",
"63 270 LINE",
"235 350 OFFCURVE",
"451 496 OFFCURVE",
"504 571 CURVE SMOOTH",
"571 666 OFFCURVE",
"571 738 CURVE SMOOTH",
"571 811 OFFCURVE",
"505 902 CURVE SMOOTH",
"447 981 OFFCURVE",
"344 1050 CURVE SMOOTH",
"234 1123 OFFCURVE",
"63 1204 CURVE",
"445 1467 LINE",
"561 1360 LINE",
"348 1218 LINE",
"561 1101 OFFCURVE",
"652 990 CURVE SMOOTH"
);
}
);
width = 869;
}
);
unicode = 10C8B;
},
{
glyphname = u10C8C;
layers = (
{
layerId = "10FB5B92-D81B-4903-B019-4239E442CDDF";
paths = (
{
closed = 1;
nodes = (
"728 1337 LINE",
"630 1271 OFFCURVE",
"584 1231 CURVE SMOOTH",
"553 1204 OFFCURVE",
"472 1114 CURVE",
"740 832 LINE",
"1006 1109 LINE",
"956 1167 OFFCURVE",
"890 1223 CURVE SMOOTH",
"845 1261 OFFCURVE",
"740 1336 CURVE"
);
},
{
closed = 1;
nodes = (
"1339 885 OFFCURVE",
"1339 733 CURVE SMOOTH",
"1339 576 OFFCURVE",
"1280 456 CURVE SMOOTH",
"1218 331 OFFCURVE",
"990 113 OFFCURVE",
"830 6 CURVE",
"830 6 OFFCURVE",
"645 6 CURVE",
"485 113 OFFCURVE",
"256 331 OFFCURVE",
"194 456 CURVE SMOOTH",
"124 599 OFFCURVE",
"124 753 CURVE SMOOTH",
"124 874 OFFCURVE",
"194 1016 CURVE SMOOTH",
"257 1143 OFFCURVE",
"370 1252 CURVE SMOOTH",
"485 1361 OFFCURVE",
"643 1467 CURVE",
"830 1467 LINE",
"990 1361 OFFCURVE",
"1104 1252 CURVE SMOOTH",
"1226 1134 OFFCURVE",
"1280 1016 CURVE SMOOTH"
);
},
{
closed = 1;
nodes = (
"647 732 LINE",
"388 1006 LINE",
"318 886 OFFCURVE",
"318 736 CURVE SMOOTH",
"318 657 OFFCURVE",
"354 526 OFFCURVE",
"390 464 CURVE"
);
},
{
closed = 1;
nodes = (
"832 732 LINE",
"1088 469 LINE",
"1180 556 OFFCURVE",
"1184 733 CURVE SMOOTH",
"1187 856 OFFCURVE",
"1088 1000 CURVE"
);
},
{
closed = 1;
nodes = (
"740 133 LINE",
"845 208 OFFCURVE",
"890 246 CURVE SMOOTH",
"956 302 OFFCURVE",
"1006 360 CURVE",
"740 637 LINE",
"472 355 LINE",
"553 265 OFFCURVE",
"584 238 CURVE SMOOTH",
"630 198 OFFCURVE",
"728 132 CURVE"
);
}
);
width = 1463;
}
);
unicode = 10C8C;
},
{
glyphname = u10C8D;
layers = (
{
layerId = "10FB5B92-D81B-4903-B019-4239E442CDDF";
paths = (
{
closed = 1;
nodes = (
"210 3 LINE",
"10 3 LINE",
"686 1461 LINE",
"859 1461 LINE",
"1523 9 LINE",
"1326 9 LINE",
"1046 625 LINE",
"766 6 LINE",
"578 6 LINE",
"946 827 LINE",
"918 903 LINE",
"855 1067 OFFCURVE",
"849 1084 CURVE SMOOTH",
"807 1205 OFFCURVE",
"781 1251 CURVE",
"762 1251 LINE",
"729 1166 OFFCURVE",
"695 1082 CURVE",
"695 1082 OFFCURVE",
"608 891 CURVE"
);
}
);
width = 1533;
}
);
unicode = 10C8D;
},
{
glyphname = u10C8E;
layers = (
{
layerId = "10FB5B92-D81B-4903-B019-4239E442CDDF";
paths = (
{
closed = 1;
nodes = (
"710 6 LINE",
"518 6 LINE",
"518 389 LINE",
"182 228 LINE",
"104 355 LINE",
"518 554 LINE",
"518 821 LINE",
"182 662 LINE",
"104 787 LINE",
"518 986 LINE",
"518 1467 LINE",
"710 1467 LINE",
"710 1077 LINE",
"1047 1236 LINE",
"1125 1107 LINE",
"710 910 LINE",
"710 645 LINE",
"1047 804 LINE",
"1125 675 LINE",
"710 478 LINE"
);
}
);
width = 1229;
}
);
unicode = 10C8E;
},
{
glyphname = u10C8F;
layers = (
{
layerId = "10FB5B92-D81B-4903-B019-4239E442CDDF";
paths = (
{
closed = 1;
nodes = (
"373 3 LINE",
"130 3 LINE",
"590 370 LINE",
"104 759 LINE",
"590 1123 LINE",
"130 1464 LINE",
"369 1464 LINE",
"708 1209 LINE",
"1045 1464 LINE",
"1288 1464 LINE",
"827 1123 LINE",
"1316 759 LINE",
"827 370 LINE",
"1288 3 LINE",
"1045 3 LINE",
"708 277 LINE"
);
},
{
closed = 1;
nodes = (
"349 761 LINE",
"708 470 LINE",
"1067 761 LINE",
"708 1030 LINE"
);
}
);
width = 1420;
}
);
unicode = 10C8F;
},
{
glyphname = u10C90;
layers = (
{
layerId = "10FB5B92-D81B-4903-B019-4239E442CDDF";
paths = (
{
closed = 1;
nodes = (
"710 4 LINE",
"518 4 LINE",
"518 893 LINE",
"182 722 LINE",
"104 857 LINE",
"518 1071 LINE",
"518 1465 LINE",
"710 1465 LINE",
"710 1169 LINE",
"1047 1340 LINE",
"1125 1201 LINE",
"710 989 LINE"
);
}
);
width = 1229;
}
);
unicode = 10C90;
},
{
glyphname = u10C91;
layers = (
{
layerId = "10FB5B92-D81B-4903-B019-4239E442CDDF";
paths = (
{
closed = 1;
nodes = (
"741 3 LINE",
"544 3 LINE",
"544 1211 LINE",
"182 1042 LINE",
"104 1168 LINE",
"1047 1610 LINE",
"1125 1483 LINE",
"741 1301 LINE"
);
}
);
width = 1229;
}
);
unicode = 10C91;
},
{
glyphname = u10C92;
layers = (
{
layerId = "10FB5B92-D81B-4903-B019-4239E442CDDF";
paths = (
{
closed = 1;
nodes = (
"865 0 LINE",
"688 0 LINE",
"688 1225 LINE",
"214 782 LINE",
"104 896 LINE",
"714 1463 LINE",
"865 1463 LINE"
);
}
);
width = 1064;
}
);
unicode = 10C92;
},
{
glyphname = u10C93;
layers = (
{
layerId = "10FB5B92-D81B-4903-B019-4239E442CDDF";
paths = (
{
closed = 1;
nodes = (
"913 0 LINE",
"730 0 LINE",
"250 731 LINE",
"730 1463 LINE",
"913 1463 LINE",
"1393 731 LINE"
);
},
{
closed = 1;
nodes = (
"449 731 LINE",
"822 162 LINE",
"1191 731 LINE",
"822 1303 LINE"
);
}
);
width = 1643;
}
);
unicode = 10C93;
},
{
glyphname = u10C94;
layers = (
{
layerId = "10FB5B92-D81B-4903-B019-4239E442CDDF";
paths = (
{
closed = 1;
nodes = (
"748 4 LINE",
"584 4 LINE",
"584 1233 LINE",
"222 924 LINE",
"104 1046 LINE",
"600 1467 LINE",
"764 1467 LINE",
"764 236 LINE",
"1127 546 LINE",
"1245 425 LINE"
);
}
);
width = 1349;
}
);
unicode = 10C94;
},
{
glyphname = u10C95;
layers = (
{
layerId = "10FB5B92-D81B-4903-B019-4239E442CDDF";
paths = (
{
closed = 1;
nodes = (
"847 608 LINE",
"423 5 LINE",
"8 167 LINE",
"76 280 LINE",
"341 170 LINE",
"757 741 LINE",
"353 1297 LINE",
"88 1188 LINE",
"20 1301 LINE",
"435 1466 LINE",
"847 874 LINE",
"1262 1466 LINE",
"1675 1301 LINE",
"1609 1188 LINE",
"1342 1297 LINE",
"939 741 LINE",
"1354 170 LINE",
"1621 280 LINE",
"1687 167 LINE",
"1274 5 LINE"
);
}
);
width = 1695;
}
);
unicode = 10C95;
},
{
glyphname = u10C96;
layers = (
{
layerId = "10FB5B92-D81B-4903-B019-4239E442CDDF";
paths = (
{
closed = 1;
nodes = (
"210 3 LINE",
"10 3 LINE",
"692 1463 LINE",
"863 1463 LINE",
"1537 -1 LINE",
"1340 -1 LINE",
"1197 317 LINE",
"1053 2 LINE",
"877 2 LINE",
"1109 508 LINE",
"989 772 LINE",
"640 -1 LINE",
"461 -1 LINE",
"897 972 LINE",
"861 1058 OFFCURVE",
"801 1202 OFFCURVE",
"779 1270 CURVE",
"771 1270 LINE",
"754 1222 OFFCURVE",
"713 1119 CURVE SMOOTH",
"685 1050 OFFCURVE",
"636 943 CURVE SMOOTH"
);
}
);
width = 1547;
}
);
unicode = 10C96;
},
{
glyphname = u10C97;
layers = (
{
layerId = "10FB5B92-D81B-4903-B019-4239E442CDDF";
paths = (
{
closed = 1;
nodes = (
"1334 878 OFFCURVE",
"1334 733 CURVE SMOOTH",
"1334 583 OFFCURVE",
"1272 454 CURVE SMOOTH",
"1211 330 OFFCURVE",
"985 112 OFFCURVE",
"829 5 CURVE",
"644 5 LINE",
"488 112 OFFCURVE",
"263 330 OFFCURVE",
"202 455 CURVE",
"124 608 OFFCURVE",
"124 753 CURVE SMOOTH",
"124 867 OFFCURVE",
"200 1020 CURVE",
"262 1142 OFFCURVE",
"374 1250 CURVE SMOOTH",
"488 1360 OFFCURVE",
"642 1466 CURVE",
"829 1466 LINE",
"985 1360 OFFCURVE",
"1098 1250 CURVE SMOOTH",
"1217 1135 OFFCURVE",
"1272 1016 CURVE"
);
},
{
closed = 1;
nodes = (
"420 1057 OFFCURVE",
"384 976 CURVE SMOOTH",
"325 842 OFFCURVE",
"325 737 CURVE SMOOTH",
"325 596 OFFCURVE",
"385 483 CURVE",
"1005 1110 LINE",
"955 1166 OFFCURVE",
"823 1280 OFFCURVE",
"739 1344 CURVE",
"732 1344 LINE",
"577 1223 OFFCURVE",
"506 1148 CURVE SMOOTH"
);
},
{
closed = 1;
nodes = (
"1147 893 OFFCURVE",
"1083 1005 CURVE",
"469 363 LINE",
"519 305 OFFCURVE",
"647 192 OFFCURVE",
"729 128 CURVE",
"739 129 LINE",
"877 233 OFFCURVE",
"967 324 CURVE SMOOTH",
"1055 413 OFFCURVE",
"1104 518 CURVE SMOOTH",
"1158 634 OFFCURVE",
"1154 726 CURVE SMOOTH"
);
}
);
width = 1458;
}
);
unicode = 10C97;
},
{
glyphname = u10C98;
layers = (
{
layerId = "10FB5B92-D81B-4903-B019-4239E442CDDF";
paths = (
{
closed = 1;
nodes = (
"851 4 LINE",
"661 4 LINE",
"104 378 LINE",
"104 541 LINE",
"474 715 LINE",
"104 942 LINE",
"104 1108 LINE",
"661 1465 LINE",
"851 1465 LINE"
);
},
{
closed = 1;
nodes = (
"271 1022 LINE",
"671 782 LINE",
"671 1291 LINE"
);
},
{
closed = 1;
nodes = (
"271 448 LINE",
"671 172 LINE",
"671 640 LINE"
);
}
);
width = 1050;
}
);
unicode = 10C98;
},
{
glyphname = u10C99;
layers = (
{
layerId = "10FB5B92-D81B-4903-B019-4239E442CDDF";
paths = (
{
closed = 1;
nodes = (
"849 870 OFFCURVE",
"849 769 CURVE SMOOTH",
"849 604 OFFCURVE",
"776 471 CURVE SMOOTH",
"712 354 OFFCURVE",
"423 130 OFFCURVE",
"175 0 CURVE",
"175 0 OFFCURVE",
"73 116 CURVE",
"287 227 OFFCURVE",
"541 419 OFFCURVE",
"597 514 CURVE SMOOTH",
"661 624 OFFCURVE",
"669 739 CURVE SMOOTH",
"672 789 OFFCURVE",
"623 892 CURVE SMOOTH",
"580 981 OFFCURVE",
"525 1038 CURVE SMOOTH",
"457 1108 OFFCURVE",
"230 1262 OFFCURVE",
"63 1352 CURVE",
"185 1461 LINE",
"429 1333 OFFCURVE",
"572 1219 CURVE SMOOTH",
"695 1120 OFFCURVE",
"777 987 CURVE SMOOTH"
);
}
);
width = 974;
}
);
unicode = 10C99;
},
{
glyphname = u10C9A;
layers = (
{
layerId = "10FB5B92-D81B-4903-B019-4239E442CDDF";
paths = (
{
closed = 1;
nodes = (
"1060 888 OFFCURVE",
"1060 754 CURVE SMOOTH",
"1060 579 OFFCURVE",
"997 460 CURVE",
"931 339 OFFCURVE",
"777 227 CURVE SMOOTH",
"626 117 OFFCURVE",
"378 1 CURVE",
"199 1 LINE",
"199 1462 LINE",
"378 1462 LINE",
"629 1344 OFFCURVE",
"776 1233 CURVE SMOOTH",
"922 1122 OFFCURVE",
"996 996 CURVE SMOOTH"
);
},
{
closed = 1;
nodes = (
"734 1067 OFFCURVE",
"671 1117 CURVE SMOOTH",
"561 1203 OFFCURVE",
"378 1297 CURVE",
"378 175 LINE",
"558 263 OFFCURVE",
"667 344 CURVE SMOOTH",
"749 406 OFFCURVE",
"827 521 CURVE SMOOTH",
"895 621 OFFCURVE",
"895 744 CURVE SMOOTH",
"895 856 OFFCURVE",
"829 937 CURVE"
);
}
);
width = 1191;
}
);
unicode = 10C9A;
},
{
glyphname = u10C9B;
layers = (
{
layerId = "10FB5B92-D81B-4903-B019-4239E442CDDF";
paths = (
{
closed = 1;
nodes = (
"1070 866 OFFCURVE",
"1068 718 CURVE SMOOTH",
"1066 568 OFFCURVE",
"1009 452 CURVE SMOOTH",
"950 333 OFFCURVE",
"713 120 OFFCURVE",
"533 7 CURVE",
"63 365 LINE",
"187 465 LINE",
"549 188 LINE",
"669 272 OFFCURVE",
"814 433 OFFCURVE",
"847 524 CURVE SMOOTH",
"883 623 OFFCURVE",
"883 718 CURVE SMOOTH",
"883 831 OFFCURVE",
"847 924 CURVE SMOOTH",
"813 1012 OFFCURVE",
"738 1095 CURVE",
"661 1178 OFFCURVE",
"529 1271 CURVE",
"187 1010 LINE",
"63 1110 LINE",
"533 1468 LINE",
"729 1336 OFFCURVE",
"846 1220 CURVE SMOOTH",
"965 1104 OFFCURVE",
"1016 988 CURVE SMOOTH"
);
}
);
width = 1193;
}
);
unicode = 10C9B;
},
{
glyphname = u10C9C;
layers = (
{
layerId = "10FB5B92-D81B-4903-B019-4239E442CDDF";
paths = (
{
closed = 1;
nodes = (
"862 1027 OFFCURVE",
"764 1123 CURVE SMOOTH",
"665 1221 OFFCURVE",
"490 1342 CURVE",
"609 1465 LINE",
"805 1328 OFFCURVE",
"923 1210 CURVE SMOOTH",
"1040 1092 OFFCURVE",
"1144 854 OFFCURVE",
"1144 719 CURVE SMOOTH",
"1144 580 OFFCURVE",
"1085 460 CURVE SMOOTH",
"1024 338 OFFCURVE",
"908 231 CURVE SMOOTH",
"789 122 OFFCURVE",
"609 4 CURVE",
"63 445 LINE",
"470 815 LINE",
"589 712 LINE",
"306 457 LINE",
"625 194 LINE",
"804 328 OFFCURVE",
"876 449 CURVE SMOOTH",
"947 570 OFFCURVE",
"956 710 CURVE SMOOTH",
"963 810 OFFCURVE",
"907 930 CURVE SMOOTH"
);
}
);
width = 1269;
}
);
unicode = 10C9C;
},
{
glyphname = u10C9D;
layers = (
{
layerId = "10FB5B92-D81B-4903-B019-4239E442CDDF";
paths = (
{
closed = 1;
nodes = (
"727 116 LINE",
"562 -2 LINE",
"104 572 LINE",
"516 918 LINE",
"124 1343 LINE",
"271 1461 LINE",
"761 918 LINE",
"351 570 LINE"
);
}
);
width = 865;
}
);
unicode = 10C9D;
},
{
glyphname = u10C9E;
layers = (
{
layerId = "10FB5B92-D81B-4903-B019-4239E442CDDF";
paths = (
{
closed = 1;
nodes = (
"378 2 LINE",
"199 2 LINE",
"199 1463 LINE",
"378 1463 LINE",
"378 748 LINE",
"926 1464 LINE",
"1144 1464 LINE",
"585 754 LINE",
"1162 3 LINE",
"934 3 LINE",
"378 744 LINE"
);
}
);
width = 1172;
}
);
unicode = 10C9E;
},
{
glyphname = u10C9F;
layers = (
{
layerId = "10FB5B92-D81B-4903-B019-4239E442CDDF";
paths = (
{
closed = 1;
nodes = (
"609 7 OFFCURVE",
"67 439 CURVE",
"73 441 LINE",
"63 445 LINE",
"470 810 LINE",
"597 706 LINE",
"314 452 LINE",
"627 195 LINE",
"691 244 OFFCURVE",
"790 333 OFFCURVE",
"828 378 CURVE",
"715 463 LINE",
"810 554 LINE",
"902 487 LINE",
"956 596 OFFCURVE",
"956 721 CURVE SMOOTH",
"956 851 OFFCURVE",
"898 962 CURVE",
"810 898 LINE",
"715 990 LINE",
"822 1069 LINE",
"766 1130 OFFCURVE",
"604 1266 OFFCURVE",
"490 1346 CURVE",
"609 1467 LINE",
"725 1386 OFFCURVE",
"813 1314 CURVE SMOOTH",
"900 1242 OFFCURVE",
"962 1172 CURVE",
"1138 1302 LINE",
"1234 1207 LINE",
"1042 1067 LINE",
"1096 986 OFFCURVE",
"1120 902 CURVE SMOOTH",
"1144 817 OFFCURVE",
"1144 721 CURVE SMOOTH",
"1144 534 OFFCURVE",
"1040 384 CURVE",
"1240 239 LINE",
"1144 147 LINE",
"958 283 LINE",
"894 214 OFFCURVE",
"721 79 OFFCURVE",
"609 7 CURVE"
);
}
);
width = 1365;
}
);
unicode = 10C9F;
},
{
glyphname = u10CA0;
layers = (
{
layerId = "10FB5B92-D81B-4903-B019-4239E442CDDF";
paths = (
{
closed = 1;
nodes = (
"642 274 LINE",
"214 -36 LINE",
"104 68 LINE",
"642 472 LINE",
"642 760 LINE",
"214 449 LINE",
"104 552 LINE",
"642 960 LINE",
"642 1251 LINE",
"214 937 LINE",
"104 1041 LINE",
"660 1465 LINE",
"821 1465 LINE",
"821 4 LINE",
"642 4 LINE"
);
}
);
width = 925;
}
);
unicode = 10CA0;
},
{
glyphname = u10CA1;
layers = (
{
layerId = "10FB5B92-D81B-4903-B019-4239E442CDDF";
paths = (
{
closed = 1;
nodes = (
"827 173 OFFCURVE",
"590 -56 CURVE",
"460 48 LINE",
"719 280 LINE",
"657 353 OFFCURVE",
"572 506 OFFCURVE",
"550 592 CURVE",
"281 451 LINE",
"199 585 LINE",
"536 742 LINE",
"538 848 OFFCURVE",
"576 954 CURVE SMOOTH",
"614 1061 OFFCURVE",
"705 1162 CURVE",
"701 1168 LINE",
"440 1051 LINE",
"363 1187 LINE",
"1046 1463 LINE",
"1244 1463 LINE",
"1927 1187 LINE",
"1850 1051 LINE",
"1587 1168 LINE",
"1581 1162 LINE",
"1675 1062 OFFCURVE",
"1738 848 OFFCURVE",
"1740 742 CURVE",
"2077 585 LINE",
"1993 451 LINE",
"1724 592 LINE",
"1686 428 OFFCURVE",
"1557 280 CURVE",
"1828 48 LINE",
"1700 -56 LINE",
"1451 173 LINE",
"1402 130 OFFCURVE",
"1352 87 CURVE SMOOTH",
"1301 43 OFFCURVE",
"1244 2 CURVE",
"1048 2 LINE",
"1015 23 OFFCURVE",
"932 87 CURVE",
"894 115 OFFCURVE",
"827 173 CURVE"
);
},
{
closed = 1;
nodes = (
"1362 1224 OFFCURVE",
"1152 1331 CURVE",
"1125 1331 LINE",
"928 1223 OFFCURVE",
"851 1127 CURVE SMOOTH",
"701 940 OFFCURVE",
"696 747 CURVE SMOOTH",
"692 598 OFFCURVE",
"838 406 CURVE SMOOTH",
"948 262 OFFCURVE",
"1144 129 CURVE",
"1152 129 LINE",
"1350 262 OFFCURVE",
"1458 406 CURVE SMOOTH",
"1564 547 OFFCURVE",
"1566 742 CURVE SMOOTH",
"1568 930 OFFCURVE",
"1466 1075 CURVE SMOOTH"
);
}
);
width = 2276;
}
);
unicode = 10CA1;
},
{
glyphname = u10CA2;
layers = (
{
layerId = "10FB5B92-D81B-4903-B019-4239E442CDDF";
paths = (
{
closed = 1;
nodes = (
"379 5 LINE",
"199 5 LINE",
"199 1466 LINE",
"379 1466 LINE",
"379 629 LINE",
"1163 1124 LINE",
"1163 1466 LINE",
"1342 1466 LINE",
"1342 5 LINE",
"1163 5 LINE",
"1163 938 LINE",
"379 454 LINE"
);
}
);
width = 1541;
}
);
unicode = 10CA2;
},
{
glyphname = u10CA3;
layers = (
{
layerId = "10FB5B92-D81B-4903-B019-4239E442CDDF";
paths = (
{
closed = 1;
nodes = (
"1109 917 LINE",
"186 373 LINE",
"104 520 LINE",
"1025 1065 LINE"
);
}
);
width = 1213;
}
);
unicode = 10CA3;
},
{
glyphname = u10CA4;
layers = (
{
layerId = "10FB5B92-D81B-4903-B019-4239E442CDDF";
paths = (
{
closed = 1;
nodes = (
"200 1 LINE",
"10 1 LINE",
"622 1461 LINE",
"803 1461 LINE",
"1404 1 LINE",
"1215 1 LINE",
"829 943 LINE SMOOTH",
"788 1043 OFFCURVE",
"762 1112 CURVE SMOOTH",
"731 1194 OFFCURVE",
"710 1264 CURVE",
"702 1264 LINE",
"674 1169 OFFCURVE",
"650 1112 CURVE SMOOTH",
"646 1103 OFFCURVE",
"580 939 CURVE SMOOTH"
);
}
);
width = 1414;
}
);
unicode = 10CA4;
},
{
glyphname = u10CA5;
layers = (
{
layerId = "10FB5B92-D81B-4903-B019-4239E442CDDF";
paths = (
{
closed = 1;
nodes = (
"429 4 LINE",
"250 4 LINE",
"250 1465 LINE",
"429 1465 LINE"
);
}
);
width = 679;
}
);
unicode = 10CA5;
},
{
glyphname = u10CA6;
layers = (
{
layerId = "10FB5B92-D81B-4903-B019-4239E442CDDF";
paths = (
{
closed = 1;
nodes = (
"923 3 LINE",
"744 3 LINE",
"744 546 LINE",
"104 1371 LINE",
"248 1461 LINE",
"744 803 LINE",
"744 1464 LINE",
"923 1464 LINE"
);
}
);
width = 1122;
}
);
unicode = 10CA6;
},
{
glyphname = u10CA7;
layers = (
{
layerId = "10FB5B92-D81B-4903-B019-4239E442CDDF";
paths = (
{
closed = 1;
nodes = (
"1112 2 LINE",
"932 2 LINE",
"932 842 LINE",
"528 1243 LINE",
"311 1032 LINE",
"199 1141 LINE",
"534 1461 LINE",
"932 1060 LINE",
"932 1463 LINE",
"1112 1463 LINE",
"1112 1058 LINE",
"1513 1461 LINE",
"1848 1141 LINE",
"1734 1032 LINE",
"1517 1243 LINE",
"1112 840 LINE"
);
}
);
width = 2047;
}
);
unicode = 10CA7;
},
{
glyphname = u10CA8;
layers = (
{
layerId = "10FB5B92-D81B-4903-B019-4239E442CDDF";
paths = (
{
closed = 1;
nodes = (
"726 0 LINE",
"534 0 LINE",
"830 428 LINE",
"674 643 LINE",
"216 2 LINE",
"8 2 LINE",
"581 755 LINE",
"44 1461 LINE",
"263 1461 LINE",
"453 1204 LINE",
"632 1461 LINE",
"823 1461 LINE",
"558 1074 LINE",
"690 891 LINE",
"1123 1461 LINE",
"1330 1461 LINE",
"796 766 LINE",
"1370 2 LINE",
"1147 2 LINE",
"933 297 LINE"
);
}
);
width = 1378;
}
);
unicode = 10CA8;
},
{
glyphname = u10CA9;
layers = (
{
layerId = "10FB5B92-D81B-4903-B019-4239E442CDDF";
paths = (
{
closed = 1;
nodes = (
"1330 124 LINE",
"1213 2 LINE",
"640 135 LINE",
"690 261 LINE",
"1091 160 LINE",
"704 641 LINE",
"210 3 LINE",
"10 3 LINE",
"605 751 LINE",
"40 1461 LINE",
"253 1461 LINE",
"712 881 LINE",
"1053 1300 LINE",
"648 1198 LINE",
"606 1322 LINE",
"1177 1460 LINE",
"1288 1377 LINE",
"808 767 LINE"
);
}
);
width = 1434;
}
);
unicode = 10CA9;
},
{
glyphname = u10CAA;
layers = (
{
layerId = "10FB5B92-D81B-4903-B019-4239E442CDDF";
paths = (
{
closed = 1;
nodes = (
"374 1 LINE",
"199 1 LINE",
"199 1462 LINE",
"374 1462 LINE",
"822 1135 LINE",
"1271 1462 LINE",
"1447 1462 LINE",
"1447 1 LINE",
"1271 1 LINE",
"822 330 LINE"
);
},
{
closed = 1;
nodes = (
"378 1260 LINE",
"378 203 LINE",
"822 517 LINE",
"1267 203 LINE",
"1267 1260 LINE",
"822 945 LINE"
);
}
);
width = 1646;
}
);
unicode = 10CAA;
},
{
glyphname = u10CAB;
layers = (
{
layerId = "10FB5B92-D81B-4903-B019-4239E442CDDF";
paths = (
{
closed = 1;
nodes = (
"362 0 LINE",
"199 0 LINE",
"199 1461 LINE",
"362 1461 LINE",
"908 840 LINE",
"1461 1461 LINE",
"1624 1461 LINE",
"1624 0 LINE",
"1461 0 LINE",
"908 634 LINE"
);
},
{
closed = 1;
nodes = (
"1453 1246 LINE",
"1006 736 LINE",
"1450 235 LINE"
);
},
{
closed = 1;
nodes = (
"812 739 LINE",
"362 1221 LINE",
"354 230 LINE"
);
}
);
width = 1823;
}
);
unicode = 10CAB;
},
{
glyphname = u10CAC;
layers = (
{
layerId = "10FB5B92-D81B-4903-B019-4239E442CDDF";
paths = (
{
closed = 1;
nodes = (
"552 188 OFFCURVE",
"329 -28 CURVE",
"199 76 LINE",
"446 299 LINE",
"370 393 OFFCURVE",
"328 499 CURVE SMOOTH",
"287 605 OFFCURVE",
"287 730 CURVE SMOOTH",
"287 856 OFFCURVE",
"329 962 CURVE SMOOTH",
"371 1069 OFFCURVE",
"446 1165 CURVE",
"199 1384 LINE",
"329 1489 LINE",
"552 1273 LINE",
"604 1324 OFFCURVE",
"662 1370 CURVE SMOOTH",
"721 1416 OFFCURVE",
"789 1461 CURVE",
"976 1461 LINE",
"1044 1413 OFFCURVE",
"1105 1368 CURVE SMOOTH",
"1166 1322 OFFCURVE",
"1216 1273 CURVE",
"1439 1489 LINE",
"1567 1384 LINE",
"1320 1163 LINE",
"1396 1069 OFFCURVE",
"1437 961 CURVE SMOOTH",
"1478 854 OFFCURVE",
"1479 730 CURVE",
"1479 604 OFFCURVE",
"1437 500 CURVE SMOOTH",
"1396 395 OFFCURVE",
"1320 299 CURVE",
"1569 76 LINE",
"1439 -28 LINE",
"1216 188 LINE",
"1164 139 OFFCURVE",
"1104 93 CURVE SMOOTH",
"1058 58 OFFCURVE",
"976 0 CURVE",
"791 0 LINE",
"709 58 OFFCURVE",
"663 93 CURVE SMOOTH",
"604 139 OFFCURVE",
"552 188 CURVE"
);
},
{
closed = 1;
nodes = (
"1201 1053 OFFCURVE",
"1114 1144 CURVE SMOOTH",
"1024 1237 OFFCURVE",
"886 1339 CURVE",
"879 1339 LINE",
"743 1237 OFFCURVE",
"652 1144 CURVE",
"567 1055 OFFCURVE",
"517 951 CURVE SMOOTH",
"456 824 OFFCURVE",
"456 735 CURVE SMOOTH",
"456 643 OFFCURVE",
"517 510 CURVE SMOOTH",
"562 411 OFFCURVE",
"743 227 OFFCURVE",
"879 125 CURVE",
"886 125 LINE",
"1024 227 OFFCURVE",
"1204 411 OFFCURVE",
"1249 510 CURVE SMOOTH",
"1306 635 OFFCURVE",
"1306 735 CURVE SMOOTH",
"1306 830 OFFCURVE",
"1249 951 CURVE SMOOTH"
);
}
);
width = 1768;
}
);
unicode = 10CAC;
},
{
glyphname = u10CAD;
layers = (
{
layerId = "10FB5B92-D81B-4903-B019-4239E442CDDF";
paths = (
{
closed = 1;
nodes = (
"1250 2 LINE",
"1071 2 LINE",
"1071 873 LINE",
"379 363 LINE",
"199 363 LINE",
"199 1461 LINE",
"379 1461 LINE",
"379 558 LINE",
"1071 1077 LINE",
"1250 1077 LINE"
);
}
);
width = 1449;
}
);
unicode = 10CAD;
},
{
glyphname = u10CAE;
layers = (
{
layerId = "10FB5B92-D81B-4903-B019-4239E442CDDF";
paths = (
{
closed = 1;
nodes = (
"378 4 LINE",
"199 4 LINE",
"199 1465 LINE",
"374 1465 LINE",
"822 1138 LINE",
"1271 1465 LINE",
"1447 1465 LINE",
"1447 4 LINE",
"1267 4 LINE",
"1267 1263 LINE",
"822 946 LINE",
"378 1263 LINE"
);
}
);
width = 1646;
}
);
unicode = 10CAE;
},
{
glyphname = u10CAF;
layers = (
{
layerId = "10FB5B92-D81B-4903-B019-4239E442CDDF";
paths = (
{
closed = 1;
nodes = (
"372 4 LINE",
"199 4 LINE",
"199 1465 LINE",
"378 1465 LINE",
"378 982 LINE",
"1190 1465 LINE",
"1363 1465 LINE",
"1363 4 LINE",
"1184 4 LINE",
"1184 491 LINE"
);
},
{
closed = 1;
nodes = (
"378 814 LINE",
"378 582 LINE",
"1184 1061 LINE",
"1184 1293 LINE"
);
},
{
closed = 1;
nodes = (
"378 415 LINE",
"378 183 LINE",
"1184 661 LINE",
"1184 893 LINE"
);
}
);
width = 1562;
}
);
unicode = 10CAF;
},
{
glyphname = u10CB0;
layers = (
{
layerId = "10FB5B92-D81B-4903-B019-4239E442CDDF";
paths = (
{
closed = 1;
nodes = (
"1056 1 LINE",
"877 1 LINE",
"877 546 LINE",
"199 1365 LINE",
"347 1461 LINE",
"877 813 LINE",
"877 1462 LINE",
"1056 1462 LINE",
"1056 822 LINE",
"1587 1461 LINE",
"1734 1365 LINE",
"1056 546 LINE"
);
}
);
width = 1933;
}
);
unicode = 10CB0;
},
{
glyphname = u10CB1;
layers = (
{
layerId = "10FB5B92-D81B-4903-B019-4239E442CDDF";
paths = (
{
closed = 1;
nodes = (
"1090 3 LINE",
"910 3 LINE",
"528 264 LINE",
"311 49 LINE",
"199 162 LINE",
"534 480 LINE",
"910 195 LINE",
"910 447 LINE",
"528 767 LINE",
"311 552 LINE",
"199 663 LINE",
"534 983 LINE",
"910 660 LINE",
"910 913 LINE",
"528 1269 LINE",
"311 1051 LINE",
"199 1162 LINE",
"534 1482 LINE",
"910 1127 LINE",
"910 1464 LINE",
"1090 1464 LINE",
"1090 1127 LINE",
"1469 1482 LINE",
"1804 1162 LINE",
"1690 1051 LINE",
"1473 1264 LINE",
"1090 913 LINE",
"1090 653 LINE",
"1469 986 LINE",
"1804 666 LINE",
"1690 555 LINE",
"1473 770 LINE",
"1090 440 LINE",
"1090 195 LINE",
"1469 480 LINE",
"1804 162 LINE",
"1688 49 LINE",
"1473 264 LINE"
);
}
);
width = 2003;
}
);
unicode = 10CB1;
},
{
glyphname = u10CB2;
layers = (
{
layerId = "10FB5B92-D81B-4903-B019-4239E442CDDF";
paths = (
{
closed = 1;
nodes = (
"1068 1036 OFFCURVE",
"1004 1116 CURVE SMOOTH",
"944 1191 OFFCURVE",
"816 1293 CURVE",
"816 177 LINE",
"930 270 OFFCURVE",
"1004 355 CURVE SMOOTH",
"1052 410 OFFCURVE",
"1116 531 CURVE SMOOTH",
"1171 636 OFFCURVE",
"1171 758 CURVE SMOOTH",
"1171 848 OFFCURVE",
"1116 948 CURVE SMOOTH"
);
},
{
closed = 1;
nodes = (
"1334 878 OFFCURVE",
"1334 733 CURVE SMOOTH",
"1334 583 OFFCURVE",
"1272 454 CURVE SMOOTH",
"1211 330 OFFCURVE",
"985 112 OFFCURVE",
"829 5 CURVE",
"644 5 LINE",
"488 112 OFFCURVE",
"263 330 OFFCURVE",
"202 455 CURVE",
"124 608 OFFCURVE",
"124 753 CURVE SMOOTH",
"124 867 OFFCURVE",
"200 1020 CURVE",
"262 1142 OFFCURVE",
"374 1250 CURVE SMOOTH",
"488 1360 OFFCURVE",
"642 1466 CURVE",
"829 1466 LINE",
"985 1360 OFFCURVE",
"1098 1250 CURVE SMOOTH",
"1217 1135 OFFCURVE",
"1272 1016 CURVE"
);
},
{
closed = 1;
nodes = (
"296 848 OFFCURVE",
"296 758 CURVE SMOOTH",
"296 636 OFFCURVE",
"351 531 CURVE SMOOTH",
"415 410 OFFCURVE",
"462 355 CURVE SMOOTH",
"537 270 OFFCURVE",
"651 177 CURVE",
"651 1293 LINE",
"523 1191 OFFCURVE",
"463 1116 CURVE SMOOTH",
"399 1036 OFFCURVE",
"351 948 CURVE SMOOTH"
);
}
);
width = 1458;
}
);
unicode = 10CB2;
},
{
glyphname = u10CC0;
layers = (
{
layerId = "10FB5B92-D81B-4903-B019-4239E442CDDF";
paths = (
{
closed = 1;
nodes = (
"745 2 LINE",
"571 2 LINE",
"571 558 LINE",
"113 558 LINE",
"113 749 LINE",
"508 1100 LINE",
"745 1100 LINE"
);
},
{
closed = 1;
nodes = (
"265 699 LINE",
"571 696 LINE",
"571 964 LINE"
);
}
);
width = 915;
}
);
unicode = 10CC0;
},
{
glyphname = u10CC1;
layers = (
{
layerId = "10FB5B92-D81B-4903-B019-4239E442CDDF";
paths = (
{
closed = 1;
nodes = (
"703 2 LINE",
"530 2 LINE",
"530 300 LINE",
"113 612 LINE",
"113 758 LINE",
"534 1100 LINE",
"703 1100 LINE"
);
},
{
closed = 1;
nodes = (
"265 687 LINE",
"530 490 LINE",
"530 907 LINE"
);
}
);
width = 873;
}
);
unicode = 10CC1;
},
{
glyphname = u10CC2;
layers = (
{
layerId = "10FB5B92-D81B-4903-B019-4239E442CDDF";
paths = (
{
closed = 1;
nodes = (
"193 2 LINE",
"5 2 LINE",
"418 572 LINE",
"29 1100 LINE",
"227 1100 LINE",
"523 683 LINE",
"820 1100 LINE",
"1008 1100 LINE",
"625 576 LINE",
"1038 2 LINE",
"836 2 LINE",
"517 466 LINE"
);
}
);
width = 1043;
}
);
unicode = 10CC2;
},
{
glyphname = u10CC3;
layers = (
{
layerId = "10FB5B92-D81B-4903-B019-4239E442CDDF";
paths = (
{
closed = 1;
nodes = (
"1291 643 OFFCURVE",
"1291 577 CURVE SMOOTH",
"1291 470 OFFCURVE",
"1260 389 CURVE SMOOTH",
"1231 313 OFFCURVE",
"1177 243 CURVE",
"1249 158 LINE",
"1452 245 LINE",
"1508 124 LINE",
"1205 3 LINE",
"1081 139 LINE",
"1043 104 OFFCURVE",
"957 38 OFFCURVE",
"911 5 CURVE",
"774 5 LINE",
"678 71 OFFCURVE",
"602 141 CURVE",
"475 3 LINE",
"170 124 LINE",
"230 245 LINE",
"429 158 LINE",
"505 247 LINE",
"455 315 OFFCURVE",
"427 392 CURVE SMOOTH",
"391 490 OFFCURVE",
"391 577 CURVE SMOOTH",
"391 627 OFFCURVE",
"427 717 CURVE SMOOTH",
"460 799 OFFCURVE",
"505 861 CURVE",
"429 950 LINE",
"230 861 LINE",
"170 986 LINE",
"475 1106 LINE",
"601 968 LINE",
"641 1005 OFFCURVE",
"726 1067 OFFCURVE",
"774 1102 CURVE",
"911 1102 LINE",
"957 1069 OFFCURVE",
"1043 1007 OFFCURVE",
"1081 972 CURVE",
"1205 1106 LINE",
"1508 986 LINE",
"1452 861 LINE",
"1249 950 LINE",
"1177 867 LINE",
"1228 804 OFFCURVE",
"1260 722 CURVE SMOOTH"
);
},
{
closed = 1;
nodes = (
"993 872 OFFCURVE",
"846 988 CURVE",
"842 988 LINE",
"746 913 OFFCURVE",
"684 846 CURVE SMOOTH",
"613 771 OFFCURVE",
"584 710 CURVE SMOOTH",
"545 631 OFFCURVE",
"547 565 CURVE SMOOTH",
"549 503 OFFCURVE",
"594 398 CURVE SMOOTH",
"624 328 OFFCURVE",
"746 198 OFFCURVE",
"842 123 CURVE",
"846 123 LINE",
"990 235 OFFCURVE",
"1056 331 CURVE SMOOTH",
"1137 448 OFFCURVE",
"1137 561 CURVE SMOOTH",
"1137 660 OFFCURVE",
"1055 780 CURVE SMOOTH"
);
}
);
width = 1678;
}
);
unicode = 10CC3;
},
{
glyphname = u10CC4;
layers = (
{
layerId = "10FB5B92-D81B-4903-B019-4239E442CDDF";
paths = (
{
closed = 1;
nodes = (
"682 1 LINE",
"509 1 LINE",
"509 896 LINE",
"256 691 LINE",
"158 793 LINE",
"539 1098 LINE",
"653 1098 LINE",
"1033 793 LINE",
"935 691 LINE",
"682 896 LINE"
);
}
);
width = 1191;
}
);
unicode = 10CC4;
},
{
glyphname = u10CC5;
layers = (
{
layerId = "10FB5B92-D81B-4903-B019-4239E442CDDF";
paths = (
{
closed = 1;
nodes = (
"653 2 LINE",
"539 2 LINE",
"158 306 LINE",
"256 413 LINE",
"509 208 LINE",
"509 897 LINE",
"256 692 LINE",
"158 795 LINE",
"539 1100 LINE",
"653 1100 LINE",
"1033 795 LINE",
"935 692 LINE",
"682 897 LINE",
"682 208 LINE",
"935 413 LINE",
"1033 306 LINE"
);
}
);
width = 1191;
}
);
unicode = 10CC5;
},
{
glyphname = u10CC6;
layers = (
{
layerId = "10FB5B92-D81B-4903-B019-4239E442CDDF";
paths = (
{
closed = 1;
nodes = (
"321 0 LINE",
"170 0 LINE",
"170 1098 LINE",
"339 1098 LINE",
"339 782 LINE",
"865 1098 LINE",
"1017 1098 LINE",
"1017 0 LINE",
"847 0 LINE",
"847 312 LINE"
);
},
{
closed = 1;
nodes = (
"339 626 LINE",
"339 167 LINE",
"847 468 LINE",
"847 933 LINE"
);
}
);
width = 1187;
}
);
unicode = 10CC6;
},
{
glyphname = u10CC7;
layers = (
{
layerId = "10FB5B92-D81B-4903-B019-4239E442CDDF";
paths = (
{
closed = 1;
nodes = (
"628 2 LINE",
"455 2 LINE",
"455 452 LINE",
"226 343 LINE",
"158 463 LINE",
"455 604 LINE",
"455 1100 LINE",
"628 1100 LINE",
"628 688 LINE",
"860 798 LINE",
"925 673 LINE",
"628 534 LINE"
);
}
);
width = 1083;
}
);
unicode = 10CC7;
},
{
glyphname = u10CC8;
layers = (
{
layerId = "10FB5B92-D81B-4903-B019-4239E442CDDF";
paths = (
{
closed = 1;
nodes = (
"358 2 LINE",
"170 2 LINE",
"505 465 LINE",
"262 400 LINE",
"216 512 LINE",
"561 604 LINE",
"194 1099 LINE",
"392 1099 LINE",
"688 683 LINE",
"985 1099 LINE",
"1173 1099 LINE",
"870 684 LINE",
"1109 748 LINE",
"1139 631 LINE",
"812 545 LINE",
"1203 2 LINE",
"1001 2 LINE",
"682 466 LINE"
);
}
);
width = 1373;
}
);
unicode = 10CC8;
},
{
glyphname = u10CC9;
layers = (
{
layerId = "10FB5B92-D81B-4903-B019-4239E442CDDF";
paths = (
{
closed = 1;
nodes = (
"732 704 OFFCURVE",
"732 580 CURVE",
"731 443 OFFCURVE",
"686 358 CURVE SMOOTH",
"640 273 OFFCURVE",
"538 198 CURVE",
"664 102 LINE",
"578 -2 LINE",
"419 122 LINE",
"309 61 OFFCURVE",
"150 0 CURVE",
"76 115 LINE",
"208 165 OFFCURVE",
"299 214 CURVE",
"148 334 LINE",
"243 429 LINE",
"421 289 LINE",
"512 357 OFFCURVE",
"536 409 CURVE SMOOTH",
"568 482 OFFCURVE",
"568 568 CURVE SMOOTH",
"568 634 OFFCURVE",
"535 686 CURVE SMOOTH",
"500 742 OFFCURVE",
"421 801 CURVE",
"243 662 LINE",
"148 756 LINE",
"301 877 LINE",
"253 901 OFFCURVE",
"138 954 OFFCURVE",
"68 983 CURVE",
"158 1098 LINE",
"318 1035 OFFCURVE",
"425 974 CURVE",
"588 1103 LINE",
"674 999 LINE",
"544 898 LINE",
"631 832 OFFCURVE",
"688 760 CURVE SMOOTH"
);
}
);
width = 845;
}
);
unicode = 10CC9;
},
{
glyphname = u10CCA;
layers = (
{
layerId = "10FB5B92-D81B-4903-B019-4239E442CDDF";
paths = (
{
closed = 1;
nodes = (
"742 288 OFFCURVE",
"638 210 CURVE",
"682 188 OFFCURVE",
"784 144 OFFCURVE",
"843 120 CURVE",
"770 4 LINE",
"612 67 OFFCURVE",
"505 125 CURVE",
"398 67 OFFCURVE",
"240 4 CURVE",
"240 4 OFFCURVE",
"166 120 CURVE",
"226 144 OFFCURVE",
"327 187 OFFCURVE",
"371 210 CURVE",
"273 285 OFFCURVE",
"230 368 CURVE SMOOTH",
"174 479 OFFCURVE",
"174 574 CURVE SMOOTH",
"174 645 OFFCURVE",
"231 740 CURVE SMOOTH",
"286 832 OFFCURVE",
"365 895 CURVE",
"321 917 OFFCURVE",
"220 964 OFFCURVE",
"158 989 CURVE",
"248 1102 LINE",
"398 1043 OFFCURVE",
"505 983 CURVE",
"613 1044 OFFCURVE",
"762 1102 CURVE",
"851 989 LINE",
"789 965 OFFCURVE",
"688 918 OFFCURVE",
"644 895 CURVE",
"738 822 OFFCURVE",
"780 740 CURVE SMOOTH",
"818 665 OFFCURVE",
"818 590 CURVE SMOOTH",
"818 449 OFFCURVE",
"779 367 CURVE SMOOTH"
);
},
{
closed = 1;
nodes = (
"580 785 OFFCURVE",
"505 841 CURVE",
"439 793 OFFCURVE",
"396 724 CURVE SMOOTH",
"348 647 OFFCURVE",
"346 586 CURVE SMOOTH",
"344 528 OFFCURVE",
"386 442 CURVE SMOOTH",
"411 390 OFFCURVE",
"505 319 CURVE",
"583 378 OFFCURVE",
"618 442 CURVE SMOOTH",
"662 520 OFFCURVE",
"662 582 CURVE SMOOTH",
"662 651 OFFCURVE",
"618 723 CURVE SMOOTH"
);
}
);
width = 1009;
}
);
unicode = 10CCA;
},
{
glyphname = u10CCB;
layers = (
{
layerId = "10FB5B92-D81B-4903-B019-4239E442CDDF";
paths = (
{
closed = 1;
nodes = (
"610 664 OFFCURVE",
"610 566 CURVE SMOOTH",
"610 445 OFFCURVE",
"551 371 CURVE SMOOTH",
"486 289 OFFCURVE",
"333 208 CURVE",
"493 100 LINE",
"391 1 LINE",
"68 225 LINE",
"208 290 LINE SMOOTH",
"327 345 OFFCURVE",
"390 419 CURVE SMOOTH",
"444 482 OFFCURVE",
"445 553 CURVE SMOOTH",
"446 627 OFFCURVE",
"383 694 CURVE SMOOTH",
"312 770 OFFCURVE",
"180 829 CURVE SMOOTH",
"68 879 LINE",
"391 1099 LINE",
"493 1004 LINE",
"331 899 LINE",
"481 818 OFFCURVE",
"552 734 CURVE SMOOTH"
);
}
);
width = 723;
}
);
unicode = 10CCB;
},
{
glyphname = u10CCC;
layers = (
{
layerId = "10FB5B92-D81B-4903-B019-4239E442CDDF";
paths = (
{
closed = 1;
nodes = (
"554 974 LINE",
"448 893 OFFCURVE",
"385 823 CURVE",
"556 639 LINE",
"728 823 LINE",
"664 893 OFFCURVE",
"558 974 CURVE"
);
},
{
closed = 1;
nodes = (
"823 140 OFFCURVE",
"624 1 CURVE",
"624 1 OFFCURVE",
"487 1 CURVE",
"317 119 OFFCURVE",
"214 249 CURVE SMOOTH",
"102 392 OFFCURVE",
"102 564 CURVE SMOOTH",
"102 726 OFFCURVE",
"214 852 CURVE",
"329 990 OFFCURVE",
"487 1099 CURVE",
"624 1099 LINE",
"794 981 OFFCURVE",
"898 852 CURVE SMOOTH",
"994 732 OFFCURVE",
"994 566 CURVE SMOOTH",
"994 386 OFFCURVE",
"898 248 CURVE SMOOTH"
);
},
{
closed = 1;
nodes = (
"469 547 LINE",
"309 719 LINE",
"273 642 OFFCURVE",
"273 551 CURVE SMOOTH",
"273 458 OFFCURVE",
"309 381 CURVE"
);
},
{
closed = 1;
nodes = (
"644 547 LINE",
"803 383 LINE",
"839 460 OFFCURVE",
"839 551 CURVE SMOOTH",
"839 641 OFFCURVE",
"803 718 CURVE"
);
},
{
closed = 1;
nodes = (
"558 119 LINE",
"664 200 OFFCURVE",
"728 270 CURVE",
"728 270 OFFCURVE",
"556 454 CURVE",
"385 270 LINE",
"448 200 OFFCURVE",
"554 119 CURVE"
);
}
);
width = 1113;
}
);
unicode = 10CCC;
},
{
glyphname = u10CCD;
layers = (
{
layerId = "10FB5B92-D81B-4903-B019-4239E442CDDF";
paths = (
{
closed = 1;
nodes = (
"179 0 LINE",
"5 0 LINE",
"488 1098 LINE",
"629 1098 LINE",
"1114 0 LINE",
"936 0 LINE",
"759 413 LINE",
"593 0 LINE",
"420 0 LINE",
"675 605 LINE",
"643 681 LINE SMOOTH",
"616 746 OFFCURVE",
"595 806 CURVE SMOOTH",
"575 864 OFFCURVE",
"563 910 CURVE",
"555 910 LINE",
"543 862 OFFCURVE",
"525 812 CURVE SMOOTH",
"509 767 OFFCURVE",
"472 681 CURVE SMOOTH"
);
}
);
width = 1119;
}
);
unicode = 10CCD;
},
{
glyphname = u10CCE;
layers = (
{
layerId = "10FB5B92-D81B-4903-B019-4239E442CDDF";
paths = (
{
closed = 1;
nodes = (
"632 2 LINE",
"459 2 LINE",
"459 260 LINE",
"228 142 LINE",
"158 255 LINE",
"459 411 LINE",
"459 604 LINE",
"228 482 LINE",
"158 596 LINE",
"459 752 LINE",
"459 1100 LINE",
"632 1100 LINE",
"632 834 LINE",
"875 960 LINE",
"933 844 LINE",
"632 685 LINE",
"632 495 LINE",
"875 618 LINE",
"933 502 LINE",
"632 341 LINE"
);
}
);
width = 1091;
}
);
unicode = 10CCE;
},
{
glyphname = u10CCF;
layers = (
{
layerId = "10FB5B92-D81B-4903-B019-4239E442CDDF";
paths = (
{
closed = 1;
nodes = (
"381 3 LINE",
"166 3 LINE",
"503 285 LINE",
"158 573 LINE",
"503 837 LINE",
"162 1101 LINE",
"379 1101 LINE",
"612 922 LINE",
"847 1101 LINE",
"1063 1101 LINE",
"724 837 LINE",
"1067 573 LINE",
"722 285 LINE",
"1059 3 LINE",
"845 3 LINE",
"612 196 LINE"
);
},
{
closed = 1;
nodes = (
"387 571 LINE",
"612 379 LINE",
"842 571 LINE",
"612 749 LINE"
);
}
);
width = 1225;
}
);
unicode = 10CCF;
},
{
glyphname = u10CD0;
layers = (
{
layerId = "10FB5B92-D81B-4903-B019-4239E442CDDF";
paths = (
{
closed = 1;
nodes = (
"632 0 LINE",
"459 0 LINE",
"459 664 LINE",
"228 545 LINE",
"158 659 LINE",
"459 810 LINE",
"459 1098 LINE",
"632 1098 LINE",
"632 899 LINE",
"875 1022 LINE",
"933 906 LINE",
"632 752 LINE"
);
}
);
width = 1091;
}
);
unicode = 10CD0;
},
{
glyphname = u10CD1;
layers = (
{
layerId = "10FB5B92-D81B-4903-B019-4239E442CDDF";
paths = (
{
closed = 1;
nodes = (
"686 4 LINE",
"513 4 LINE",
"513 885 LINE",
"228 749 LINE",
"158 856 LINE",
"923 1220 LINE",
"981 1111 LINE",
"686 970 LINE"
);
}
);
width = 1139;
}
);
unicode = 10CD1;
},
{
glyphname = u10CD2;
layers = (
{
layerId = "10FB5B92-D81B-4903-B019-4239E442CDDF";
paths = (
{
closed = 1;
nodes = (
"622 2 LINE",
"449 2 LINE",
"449 889 LINE",
"130 606 LINE",
"22 702 LINE",
"469 1100 LINE",
"622 1100 LINE"
);
}
);
width = 811;
}
);
unicode = 10CD2;
},
{
glyphname = u10CD3;
layers = (
{
layerId = "10FB5B92-D81B-4903-B019-4239E442CDDF";
paths = (
{
closed = 1;
nodes = (
"692 3 LINE",
"541 3 LINE",
"190 557 LINE",
"541 1101 LINE",
"692 1101 LINE",
"1041 557 LINE"
);
},
{
closed = 1;
nodes = (
"370 556 LINE",
"617 156 LINE",
"862 556 LINE",
"617 948 LINE"
);
}
);
width = 1231;
}
);
unicode = 10CD3;
},
{
glyphname = u10CD4;
layers = (
{
layerId = "10FB5B92-D81B-4903-B019-4239E442CDDF";
paths = (
{
closed = 1;
nodes = (
"652 0 LINE",
"509 0 LINE",
"509 892 LINE",
"256 687 LINE",
"158 793 LINE",
"539 1098 LINE",
"682 1098 LINE",
"682 206 LINE",
"935 411 LINE",
"1033 304 LINE"
);
}
);
width = 1191;
}
);
unicode = 10CD4;
},
{
glyphname = u10CD5;
layers = (
{
layerId = "10FB5B92-D81B-4903-B019-4239E442CDDF";
paths = (
{
closed = 1;
nodes = (
"633 436 LINE",
"336 3 LINE",
"5 132 LINE",
"67 245 LINE",
"258 168 LINE",
"537 561 LINE",
"266 936 LINE",
"77 856 LINE",
"15 971 LINE",
"344 1102 LINE",
"633 683 LINE",
"918 1101 LINE",
"1251 972 LINE",
"1190 857 LINE",
"998 936 LINE",
"728 561 LINE",
"1008 168 LINE",
"1198 245 LINE",
"1259 132 LINE",
"928 3 LINE"
);
}
);
width = 1264;
}
);
unicode = 10CD5;
},
{
glyphname = u10CD6;
layers = (
{
layerId = "10FB5B92-D81B-4903-B019-4239E442CDDF";
paths = (
{
closed = 1;
nodes = (
"175 1 LINE",
"5 1 LINE",
"533 1099 LINE",
"675 1099 LINE",
"1206 1 LINE",
"1030 1 LINE",
"928 216 LINE",
"838 1 LINE",
"671 1 LINE",
"844 390 LINE",
"762 560 LINE",
"507 1 LINE",
"340 1 LINE",
"681 732 LINE",
"659 785 OFFCURVE",
"621 879 OFFCURVE",
"609 914 CURVE",
"601 914 LINE",
"587 870 OFFCURVE",
"564 815 CURVE SMOOTH",
"536 747 OFFCURVE",
"504 682 CURVE SMOOTH"
);
}
);
width = 1211;
}
);
unicode = 10CD6;
},
{
glyphname = u10CD7;
layers = (
{
layerId = "10FB5B92-D81B-4903-B019-4239E442CDDF";
paths = (
{
closed = 1;
nodes = (
"823 140 OFFCURVE",
"624 1 CURVE",
"487 1 LINE",
"317 119 OFFCURVE",
"214 249 CURVE SMOOTH",
"102 392 OFFCURVE",
"102 564 CURVE SMOOTH",
"102 726 OFFCURVE",
"214 852 CURVE",
"329 990 OFFCURVE",
"487 1099 CURVE",
"624 1099 LINE",
"794 981 OFFCURVE",
"898 852 CURVE SMOOTH",
"994 732 OFFCURVE",
"994 566 CURVE SMOOTH",
"994 386 OFFCURVE",
"898 248 CURVE SMOOTH"
);
},
{
closed = 1;
nodes = (
"801 323 OFFCURVE",
"820 370 CURVE SMOOTH",
"842 425 OFFCURVE",
"842 544 CURVE SMOOTH",
"842 633 OFFCURVE",
"808 712 CURVE",
"387 273 LINE",
"442 208 OFFCURVE",
"561 114 CURVE",
"565 114 LINE",
"679 200 OFFCURVE",
"722 244 CURVE SMOOTH"
);
},
{
closed = 1;
nodes = (
"318 773 OFFCURVE",
"299 726 CURVE SMOOTH",
"277 671 OFFCURVE",
"277 552 CURVE SMOOTH",
"277 463 OFFCURVE",
"311 384 CURVE",
"732 823 LINE",
"677 888 OFFCURVE",
"558 982 CURVE",
"554 982 LINE",
"440 896 OFFCURVE",
"396 852 CURVE SMOOTH"
);
}
);
width = 1113;
}
);
unicode = 10CD7;
},
{
glyphname = u10CD8;
layers = (
{
layerId = "10FB5B92-D81B-4903-B019-4239E442CDDF";
paths = (
{
closed = 1;
nodes = (
"786 1 LINE",
"629 1 LINE",
"113 243 LINE",
"113 425 LINE",
"396 554 LINE",
"113 695 LINE",
"113 876 LINE",
"621 1099 LINE",
"786 1099 LINE"
);
},
{
closed = 1;
nodes = (
"259 779 LINE",
"627 585 LINE",
"627 941 LINE"
);
},
{
closed = 1;
nodes = (
"259 340 LINE",
"627 172 LINE",
"627 522 LINE"
);
}
);
width = 956;
}
);
unicode = 10CD8;
},
{
glyphname = u10CD9;
layers = (
{
layerId = "10FB5B92-D81B-4903-B019-4239E442CDDF";
paths = (
{
closed = 1;
nodes = (
"453 789 OFFCURVE",
"366 843 CURVE SMOOTH",
"260 908 OFFCURVE",
"68 986 CURVE",
"158 1102 LINE",
"366 1019 OFFCURVE",
"491 938 CURVE SMOOTH",
"612 861 OFFCURVE",
"674 765 CURVE SMOOTH",
"730 679 OFFCURVE",
"730 570 CURVE SMOOTH",
"730 432 OFFCURVE",
"674 342 CURVE SMOOTH",
"616 250 OFFCURVE",
"362 87 OFFCURVE",
"150 4 CURVE",
"150 4 OFFCURVE",
"76 120 CURVE",
"264 193 OFFCURVE",
"471 321 OFFCURVE",
"512 392 CURVE SMOOTH",
"566 484 OFFCURVE",
"566 578 CURVE SMOOTH",
"566 640 OFFCURVE",
"512 710 CURVE"
);
}
);
width = 843;
}
);
unicode = 10CD9;
},
{
glyphname = u10CDA;
layers = (
{
layerId = "10FB5B92-D81B-4903-B019-4239E442CDDF";
paths = (
{
closed = 1;
nodes = (
"745 893 OFFCURVE",
"856 714 OFFCURVE",
"856 558 CURVE SMOOTH",
"856 436 OFFCURVE",
"796 326 CURVE SMOOTH",
"758 255 OFFCURVE",
"634 130 CURVE SMOOTH",
"533 28 OFFCURVE",
"339 1 CURVE",
"170 1 LINE",
"170 1099 LINE",
"339 1099 LINE",
"529 1085 OFFCURVE",
"652 976 CURVE SMOOTH"
);
},
{
closed = 1;
nodes = (
"519 904 OFFCURVE",
"339 937 CURVE",
"339 161 LINE",
"499 180 OFFCURVE",
"619 331 CURVE SMOOTH",
"692 424 OFFCURVE",
"690 560 CURVE SMOOTH",
"688 724 OFFCURVE",
"574 846 CURVE SMOOTH"
);
}
);
width = 969;
}
);
unicode = 10CDA;
},
{
glyphname = u10CDB;
layers = (
{
layerId = "10FB5B92-D81B-4903-B019-4239E442CDDF";
paths = (
{
closed = 1;
nodes = (
"425 3 OFFCURVE",
"68 289 CURVE",
"184 388 LINE",
"441 180 LINE",
"565 270 OFFCURVE",
"614 354 CURVE SMOOTH",
"664 439 OFFCURVE",
"664 544 CURVE SMOOTH",
"664 609 OFFCURVE",
"642 669 CURVE SMOOTH",
"620 728 OFFCURVE",
"516 846 OFFCURVE",
"427 912 CURVE",
"184 713 LINE",
"68 812 LINE",
"425 1101 LINE",
"577 998 OFFCURVE",
"758 819 OFFCURVE",
"798 730 CURVE SMOOTH",
"837 641 OFFCURVE",
"837 544 CURVE SMOOTH",
"837 381 OFFCURVE",
"633 135 OFFCURVE",
"425 3 CURVE"
);
}
);
width = 950;
}
);
unicode = 10CDB;
},
{
glyphname = u10CDC;
layers = (
{
layerId = "10FB5B92-D81B-4903-B019-4239E442CDDF";
paths = (
{
closed = 1;
nodes = (
"672 762 OFFCURVE",
"600 829 CURVE SMOOTH",
"522 901 OFFCURVE",
"385 990 CURVE",
"493 1101 LINE",
"649 999 OFFCURVE",
"831 820 OFFCURVE",
"872 732 CURVE SMOOTH",
"913 643 OFFCURVE",
"913 545 CURVE SMOOTH",
"913 383 OFFCURVE",
"707 135 OFFCURVE",
"493 3 CURVE",
"493 3 OFFCURVE",
"68 353 CURVE",
"375 640 LINE",
"489 539 LINE",
"293 362 LINE",
"511 178 LINE",
"641 270 OFFCURVE",
"691 354 CURVE SMOOTH",
"737 432 OFFCURVE",
"744 550 CURVE SMOOTH",
"748 616 OFFCURVE",
"710 689 CURVE SMOOTH"
);
}
);
width = 1026;
}
);
unicode = 10CDC;
},
{
glyphname = u10CDD;
layers = (
{
layerId = "10FB5B92-D81B-4903-B019-4239E442CDDF";
paths = (
{
closed = 1;
nodes = (
"719 105 LINE",
"616 2 LINE",
"158 382 LINE",
"553 700 LINE",
"186 995 LINE",
"300 1098 LINE",
"764 707 LINE",
"371 388 LINE"
);
}
);
width = 922;
}
);
unicode = 10CDD;
},
{
glyphname = u10CDE;
layers = (
{
layerId = "10FB5B92-D81B-4903-B019-4239E442CDDF";
paths = (
{
closed = 1;
nodes = (
"343 2 LINE",
"170 2 LINE",
"170 1100 LINE",
"343 1100 LINE",
"343 567 LINE",
"718 1100 LINE",
"911 1100 LINE",
"516 565 LINE",
"925 2 LINE",
"722 2 LINE",
"343 552 LINE"
);
}
);
width = 930;
}
);
unicode = 10CDE;
},
{
glyphname = u10CDF;
layers = (
{
layerId = "10FB5B92-D81B-4903-B019-4239E442CDDF";
paths = (
{
closed = 1;
nodes = (
"493 4 OFFCURVE",
"68 354 CURVE",
"375 641 LINE",
"489 540 LINE",
"293 363 LINE",
"511 179 LINE",
"595 238 OFFCURVE",
"644 294 CURVE",
"548 363 LINE",
"640 448 LINE",
"712 396 LINE",
"742 467 OFFCURVE",
"742 546 CURVE SMOOTH",
"742 584 OFFCURVE",
"734 623 CURVE SMOOTH",
"726 661 OFFCURVE",
"706 699 CURVE",
"638 649 LINE",
"546 735 LINE",
"632 798 LINE",
"550 884 OFFCURVE",
"385 991 CURVE",
"493 1102 LINE",
"581 1045 OFFCURVE",
"712 941 OFFCURVE",
"760 891 CURVE",
"893 988 LINE",
"983 906 LINE",
"837 796 LINE",
"877 735 OFFCURVE",
"913 612 OFFCURVE",
"913 546 CURVE SMOOTH",
"913 413 OFFCURVE",
"841 301 CURVE",
"989 192 LINE",
"899 106 LINE",
"762 206 LINE",
"712 155 OFFCURVE",
"579 56 OFFCURVE",
"493 4 CURVE"
);
}
);
width = 1102;
}
);
unicode = 10CDF;
},
{
glyphname = u10CE0;
layers = (
{
layerId = "10FB5B92-D81B-4903-B019-4239E442CDDF";
paths = (
{
closed = 1;
nodes = (
"618 263 LINE",
"258 -14 LINE",
"158 85 LINE",
"618 425 LINE",
"618 590 LINE",
"258 314 LINE",
"158 412 LINE",
"618 753 LINE",
"618 918 LINE",
"258 641 LINE",
"158 737 LINE",
"638 1100 LINE",
"788 1100 LINE",
"788 2 LINE",
"618 2 LINE"
);
}
);
width = 946;
}
);
unicode = 10CE0;
},
{
glyphname = u10CE1;
layers = (
{
layerId = "10FB5B92-D81B-4903-B019-4239E442CDDF";
paths = (
{
closed = 1;
nodes = (
"1030 862 OFFCURVE",
"883 978 CURVE",
"879 978 LINE",
"783 903 OFFCURVE",
"721 836 CURVE SMOOTH",
"650 761 OFFCURVE",
"620 700 CURVE SMOOTH",
"582 621 OFFCURVE",
"584 555 CURVE SMOOTH",
"586 493 OFFCURVE",
"632 388 CURVE",
"661 318 OFFCURVE",
"783 188 OFFCURVE",
"879 113 CURVE",
"883 113 LINE",
"1027 225 OFFCURVE",
"1094 321 CURVE SMOOTH",
"1174 438 OFFCURVE",
"1174 551 CURVE SMOOTH",
"1174 650 OFFCURVE",
"1092 770 CURVE SMOOTH"
);
},
{
closed = 1;
nodes = (
"1219 850 LINE",
"1255 823 OFFCURVE",
"1322 670 CURVE SMOOTH",
"1327 660 OFFCURVE",
"1331 569 CURVE",
"1602 441 LINE",
"1526 318 LINE",
"1315 423 LINE",
"1301 371 OFFCURVE",
"1251 277 OFFCURVE",
"1217 232 CURVE",
"1409 65 LINE",
"1291 -33 LINE",
"1121 129 LINE",
"1083 96 OFFCURVE",
"999 30 OFFCURVE",
"953 -1 CURVE",
"816 -1 LINE",
"770 30 OFFCURVE",
"687 94 OFFCURVE",
"651 129 CURVE",
"481 -33 LINE",
"364 65 LINE",
"555 232 LINE",
"483 324 OFFCURVE",
"457 423 CURVE",
"246 318 LINE",
"170 441 LINE",
"441 569 LINE",
"442 646 OFFCURVE",
"480 729 CURVE SMOOTH",
"511 797 OFFCURVE",
"553 858 CURVE",
"306 743 LINE",
"236 867 LINE",
"814 1097 LINE",
"957 1097 LINE",
"1536 867 LINE",
"1466 743 LINE"
);
}
);
width = 1772;
}
);
unicode = 10CE1;
},
{
glyphname = u10CE2;
layers = (
{
layerId = "10FB5B92-D81B-4903-B019-4239E442CDDF";
paths = (
{
closed = 1;
nodes = (
"343 1 LINE",
"170 1 LINE",
"170 1099 LINE",
"343 1099 LINE",
"343 485 LINE",
"867 797 LINE",
"867 1099 LINE",
"1041 1099 LINE",
"1041 1 LINE",
"867 1 LINE",
"867 634 LINE",
"343 322 LINE"
);
}
);
width = 1211;
}
);
unicode = 10CE2;
},
{
glyphname = u10CE3;
layers = (
{
layerId = "10FB5B92-D81B-4903-B019-4239E442CDDF";
paths = (
{
closed = 1;
nodes = (
"919 702 LINE",
"236 344 LINE",
"158 469 LINE",
"840 826 LINE"
);
}
);
width = 1077;
}
);
unicode = 10CE3;
},
{
glyphname = u10CE4;
layers = (
{
layerId = "10FB5B92-D81B-4903-B019-4239E442CDDF";
paths = (
{
closed = 1;
nodes = (
"179 2 LINE",
"5 2 LINE",
"488 1098 LINE",
"629 1098 LINE",
"1114 2 LINE",
"936 2 LINE",
"643 683 LINE SMOOTH",
"620 738 OFFCURVE",
"595 809 CURVE SMOOTH",
"575 866 OFFCURVE",
"563 912 CURVE",
"555 912 LINE",
"543 864 OFFCURVE",
"524 813 CURVE",
"481 704 OFFCURVE",
"472 683 CURVE SMOOTH"
);
}
);
width = 1119;
}
);
unicode = 10CE4;
},
{
glyphname = u10CE5;
layers = (
{
layerId = "10FB5B92-D81B-4903-B019-4239E442CDDF";
paths = (
{
closed = 1;
nodes = (
"331 2 LINE",
"158 2 LINE",
"158 1100 LINE",
"331 1100 LINE"
);
}
);
width = 489;
}
);
unicode = 10CE5;
},
{
glyphname = u10CE6;
layers = (
{
layerId = "10FB5B92-D81B-4903-B019-4239E442CDDF";
paths = (
{
closed = 1;
nodes = (
"742 1 LINE",
"568 1 LINE",
"568 440 LINE",
"76 991 LINE",
"206 1096 LINE",
"568 679 LINE",
"568 1099 LINE",
"742 1099 LINE"
);
}
);
width = 931;
}
);
unicode = 10CE6;
},
{
glyphname = u10CE7;
layers = (
{
layerId = "10FB5B92-D81B-4903-B019-4239E442CDDF";
paths = (
{
closed = 1;
nodes = (
"886 6 LINE",
"716 6 LINE",
"716 625 LINE",
"427 915 LINE",
"276 771 LINE",
"170 867 LINE",
"435 1104 LINE",
"716 817 LINE",
"716 1104 LINE",
"886 1104 LINE",
"886 819 LINE",
"1169 1104 LINE",
"1432 867 LINE",
"1329 771 LINE",
"1175 915 LINE",
"886 627 LINE"
);
}
);
width = 1602;
}
);
unicode = 10CE7;
},
{
glyphname = u10CE8;
layers = (
{
layerId = "10FB5B92-D81B-4903-B019-4239E442CDDF";
paths = (
{
closed = 1;
nodes = (
"193 3 LINE",
"5 3 LINE",
"418 573 LINE",
"29 1098 LINE",
"227 1098 LINE",
"348 930 LINE",
"462 1098 LINE",
"637 1098 LINE",
"434 807 LINE",
"523 684 LINE",
"820 1098 LINE",
"1008 1098 LINE",
"625 577 LINE",
"1038 3 LINE",
"836 3 LINE",
"699 203 LINE",
"563 3 LINE",
"390 3 LINE",
"613 328 LINE",
"517 467 LINE"
);
}
);
width = 1043;
}
);
unicode = 10CE8;
},
{
glyphname = u10CE9;
layers = (
{
layerId = "10FB5B92-D81B-4903-B019-4239E442CDDF";
paths = (
{
closed = 1;
nodes = (
"988 89 LINE",
"860 -5 LINE",
"456 102 LINE",
"499 227 LINE",
"748 155 LINE",
"527 458 LINE",
"193 3 LINE",
"5 3 LINE",
"418 573 LINE",
"29 1098 LINE",
"227 1098 LINE",
"526 696 LINE",
"694 932 LINE",
"461 866 LINE",
"421 991 LINE",
"815 1098 LINE",
"927 1004 LINE",
"614 577 LINE"
);
}
);
width = 1056;
}
);
unicode = 10CE9;
},
{
glyphname = u10CEA;
layers = (
{
layerId = "10FB5B92-D81B-4903-B019-4239E442CDDF";
paths = (
{
closed = 1;
nodes = (
"323 1 LINE",
"170 1 LINE",
"170 1099 LINE",
"323 1099 LINE",
"640 889 LINE",
"953 1099 LINE",
"1111 1099 LINE",
"1111 1 LINE",
"953 1 LINE",
"640 211 LINE"
);
},
{
closed = 1;
nodes = (
"339 913 LINE",
"339 185 LINE",
"640 379 LINE",
"941 185 LINE",
"941 913 LINE",
"640 720 LINE"
);
}
);
width = 1281;
}
);
unicode = 10CEA;
},
{
glyphname = u10CEB;
layers = (
{
layerId = "10FB5B92-D81B-4903-B019-4239E442CDDF";
paths = (
{
closed = 1;
nodes = (
"325 -1 LINE",
"170 -1 LINE",
"170 1097 LINE",
"325 1097 LINE",
"690 647 LINE",
"1061 1097 LINE",
"1207 1097 LINE",
"1207 -1 LINE",
"1061 -1 LINE",
"690 445 LINE"
);
},
{
closed = 1;
nodes = (
"783 549 LINE",
"1051 231 LINE",
"1057 231 LINE",
"1057 862 LINE",
"1051 862 LINE"
);
},
{
closed = 1;
nodes = (
"329 852 LINE",
"329 239 LINE",
"335 239 LINE",
"596 549 LINE",
"335 852 LINE"
);
}
);
width = 1377;
}
);
unicode = 10CEB;
},
{
glyphname = u10CEC;
layers = (
{
layerId = "10FB5B92-D81B-4903-B019-4239E442CDDF";
paths = (
{
closed = 1;
nodes = (
"766 187 OFFCURVE",
"836 260 CURVE SMOOTH",
"887 313 OFFCURVE",
"927 396 CURVE SMOOTH",
"973 489 OFFCURVE",
"975 568 CURVE SMOOTH",
"976 620 OFFCURVE",
"933 710 CURVE SMOOTH",
"904 771 OFFCURVE",
"840 852 CURVE SMOOTH",
"749 967 OFFCURVE",
"670 963 CURVE SMOOTH",
"602 960 OFFCURVE",
"518 852 CURVE SMOOTH",
"454 771 OFFCURVE",
"425 710 CURVE SMOOTH",
"382 620 OFFCURVE",
"383 568 CURVE SMOOTH",
"385 489 OFFCURVE",
"431 396 CURVE SMOOTH",
"469 318 OFFCURVE",
"522 260 CURVE SMOOTH",
"541 239 OFFCURVE",
"680 120 CURVE"
);
},
{
closed = 1;
nodes = (
"301 805 OFFCURVE",
"348 864 CURVE",
"170 1027 LINE",
"288 1125 LINE",
"445 968 LINE",
"515 1034 OFFCURVE",
"610 1101 CURVE",
"748 1101 LINE",
"842 1035 OFFCURVE",
"915 968 CURVE",
"1075 1125 LINE",
"1193 1027 LINE",
"1013 864 LINE",
"1069 789 OFFCURVE",
"1095 717 CURVE SMOOTH",
"1120 649 OFFCURVE",
"1120 572 CURVE SMOOTH",
"1120 450 OFFCURVE",
"1095 386 CURVE SMOOTH",
"1065 309 OFFCURVE",
"1013 239 CURVE",
"1193 73 LINE",
"1075 -25 LINE",
"915 133 LINE",
"877 100 OFFCURVE",
"794 34 OFFCURVE",
"748 3 CURVE",
"610 3 LINE",
"519 67 OFFCURVE",
"445 133 CURVE",
"288 -25 LINE",
"170 73 LINE",
"348 239 LINE",
"294 309 OFFCURVE",
"265 386 CURVE SMOOTH",
"228 485 OFFCURVE",
"228 576 CURVE SMOOTH",
"228 629 OFFCURVE",
"265 718 CURVE SMOOTH"
);
}
);
width = 1363;
}
);
unicode = 10CEC;
},
{
glyphname = u10CED;
layers = (
{
layerId = "10FB5B92-D81B-4903-B019-4239E442CDDF";
paths = (
{
closed = 1;
nodes = (
"977 1 LINE",
"803 1 LINE",
"803 646 LINE",
"337 307 LINE",
"170 307 LINE",
"170 1098 LINE",
"343 1098 LINE",
"343 496 LINE",
"807 835 LINE",
"977 835 LINE"
);
}
);
width = 1147;
}
);
unicode = 10CED;
},
{
glyphname = u10CEE;
layers = (
{
layerId = "10FB5B92-D81B-4903-B019-4239E442CDDF";
paths = (
{
closed = 1;
nodes = (
"339 0 LINE",
"170 0 LINE",
"170 1098 LINE",
"323 1098 LINE",
"640 888 LINE",
"953 1098 LINE",
"1111 1098 LINE",
"1111 0 LINE",
"941 0 LINE",
"941 912 LINE",
"640 719 LINE",
"339 912 LINE"
);
}
);
width = 1281;
}
);
unicode = 10CEE;
},
{
glyphname = u10CEF;
layers = (
{
layerId = "10FB5B92-D81B-4903-B019-4239E442CDDF";
paths = (
{
closed = 1;
nodes = (
"339 48 LINE",
"170 48 LINE",
"170 1149 LINE",
"339 1149 LINE",
"339 831 LINE",
"847 1149 LINE",
"1017 1149 LINE",
"1017 48 LINE",
"847 48 LINE",
"847 365 LINE"
);
},
{
closed = 1;
nodes = (
"339 683 LINE",
"339 514 LINE",
"847 831 LINE",
"847 1000 LINE"
);
},
{
closed = 1;
nodes = (
"339 365 LINE",
"339 197 LINE",
"847 514 LINE",
"847 683 LINE"
);
}
);
width = 1187;
}
);
unicode = 10CEF;
},
{
glyphname = u10CF0;
layers = (
{
layerId = "10FB5B92-D81B-4903-B019-4239E442CDDF";
paths = (
{
closed = 1;
nodes = (
"818 2 LINE",
"644 2 LINE",
"644 477 LINE",
"170 1014 LINE",
"308 1100 LINE",
"644 706 LINE",
"644 1100 LINE",
"818 1100 LINE",
"818 706 LINE",
"1169 1100 LINE",
"1305 1014 LINE",
"818 477 LINE"
);
}
);
width = 1475;
}
);
unicode = 10CF0;
},
{
glyphname = u10CF1;
layers = (
{
layerId = "10FB5B92-D81B-4903-B019-4239E442CDDF";
paths = (
{
closed = 1;
nodes = (
"897 4 LINE",
"728 4 LINE",
"441 280 LINE",
"264 157 LINE",
"170 258 LINE",
"447 453 LINE",
"728 181 LINE",
"728 356 LINE",
"441 617 LINE",
"264 492 LINE",
"170 595 LINE",
"447 785 LINE",
"728 523 LINE",
"728 692 LINE",
"441 953 LINE",
"264 830 LINE",
"170 931 LINE",
"447 1126 LINE",
"728 861 LINE",
"728 1102 LINE",
"897 1102 LINE",
"897 861 LINE",
"1181 1126 LINE",
"1458 931 LINE",
"1365 830 LINE",
"1187 953 LINE",
"897 692 LINE",
"897 523 LINE",
"1181 785 LINE",
"1458 595 LINE",
"1365 492 LINE",
"1187 617 LINE",
"897 356 LINE",
"897 181 LINE",
"1181 453 LINE",
"1458 258 LINE",
"1365 157 LINE",
"1187 280 LINE"
);
}
);
width = 1628;
}
);
unicode = 10CF1;
},
{
glyphname = u10CF2;
layers = (
{
layerId = "10FB5B92-D81B-4903-B019-4239E442CDDF";
paths = (
{
closed = 1;
nodes = (
"823 140 OFFCURVE",
"624 1 CURVE",
"487 1 LINE",
"317 119 OFFCURVE",
"214 249 CURVE SMOOTH",
"102 392 OFFCURVE",
"102 564 CURVE SMOOTH",
"102 726 OFFCURVE",
"214 852 CURVE",
"329 990 OFFCURVE",
"487 1099 CURVE",
"624 1099 LINE",
"794 981 OFFCURVE",
"898 852 CURVE SMOOTH",
"994 732 OFFCURVE",
"994 566 CURVE SMOOTH",
"994 386 OFFCURVE",
"898 248 CURVE SMOOTH"
);
},
{
closed = 1;
nodes = (
"730 842 OFFCURVE",
"635 922 CURVE",
"635 180 LINE",
"739 270 OFFCURVE",
"789 355 CURVE SMOOTH",
"861 477 OFFCURVE",
"861 562 CURVE SMOOTH",
"861 632 OFFCURVE",
"790 746 CURVE SMOOTH"
);
},
{
closed = 1;
nodes = (
"255 632 OFFCURVE",
"255 562 CURVE SMOOTH",
"255 477 OFFCURVE",
"327 355 CURVE SMOOTH",
"377 270 OFFCURVE",
"481 180 CURVE",
"481 922 LINE",
"386 842 OFFCURVE",
"326 746 CURVE SMOOTH"
);
}
);
width = 1113;
}
);
unicode = 10CF2;
},
{
glyphname = u10CFA;
layers = (
{
layerId = "10FB5B92-D81B-4903-B019-4239E442CDDF";
paths = (
{
closed = 1;
nodes = (
"429 2 LINE",
"250 2 LINE",
"250 1463 LINE",
"429 1463 LINE"
);
}
);
width = 679;
}
);
unicode = 10CFA;
},
{
glyphname = u10CFB;
layers = (
{
layerId = "10FB5B92-D81B-4903-B019-4239E442CDDF";
paths = (
{
closed = 1;
nodes = (
"636 0 LINE",
"495 0 LINE",
"10 1497 LINE",
"188 1497 LINE",
"481 594 LINE SMOOTH",
"501 531 OFFCURVE",
"528 417 CURVE SMOOTH",
"548 335 OFFCURVE",
"560 269 CURVE",
"560 269 OFFCURVE",
"568 269 CURVE",
"566 278 OFFCURVE",
"598 411 CURVE SMOOTH",
"616 484 OFFCURVE",
"652 594 CURVE SMOOTH",
"945 1497 LINE",
"1119 1497 LINE"
);
}
);
width = 1129;
}
);
unicode = 10CFB;
},
{
glyphname = u10CFC;
layers = (
{
layerId = "10FB5B92-D81B-4903-B019-4239E442CDDF";
paths = (
{
closed = 1;
nodes = (
"216 3 LINE",
"8 3 LINE",
"570 754 LINE",
"44 1460 LINE",
"263 1460 LINE",
"690 867 LINE",
"1123 1460 LINE",
"1330 1460 LINE",
"805 756 LINE",
"1370 3 LINE",
"1147 3 LINE",
"684 637 LINE"
);
}
);
width = 1378;
}
);
unicode = 10CFC;
},
{
glyphname = u10CFD;
layers = (
{
layerId = "10FB5B92-D81B-4903-B019-4239E442CDDF";
paths = (
{
closed = 1;
nodes = (
"664 4 LINE",
"479 4 LINE",
"10 1461 LINE",
"194 1461 LINE",
"435 690 LINE",
"443 660 OFFCURVE",
"465 580 CURVE SMOOTH",
"479 528 OFFCURVE",
"491 479 CURVE",
"485 1461 LINE",
"658 1461 LINE",
"652 477 LINE",
"663 523 OFFCURVE",
"678 578 CURVE SMOOTH",
"692 630 OFFCURVE",
"708 690 CURVE",
"951 1461 LINE",
"1131 1461 LINE"
);
}
);
width = 1141;
}
);
unicode = 10CFD;
},
{
glyphname = u10CFE;
layers = (
{
layerId = "10FB5B92-D81B-4903-B019-4239E442CDDF";
paths = (
{
closed = 1;
nodes = (
"781 1454 LINE",
"781 987 LINE",
"1123 1456 LINE",
"1330 1456 LINE",
"805 762 LINE",
"1370 0 LINE",
"1147 0 LINE",
"781 535 LINE",
"781 8 LINE",
"608 8 LINE",
"608 543 LINE",
"216 0 LINE",
"8 0 LINE",
"570 760 LINE",
"44 1456 LINE",
"263 1456 LINE",
"608 978 LINE",
"608 1454 LINE"
);
}
);
width = 1378;
}
);
unicode = 10CFE;
},
{
glyphname = u10CFF;
layers = (
{
layerId = "10FB5B92-D81B-4903-B019-4239E442CDDF";
paths = (
{
closed = 1;
nodes = (
"1330 709 LINE",
"857 709 LINE",
"1372 1 LINE",
"1149 1 LINE",
"783 550 LINE",
"783 9 LINE",
"610 9 LINE",
"610 548 LINE",
"218 1 LINE",
"10 1 LINE",
"521 701 LINE",
"54 701 LINE",
"48 859 LINE",
"503 855 LINE",
"46 1468 LINE",
"265 1468 LINE",
"610 983 LINE",
"610 1466 LINE",
"783 1466 LINE",
"783 992 LINE",
"1125 1468 LINE",
"1332 1468 LINE",
"887 860 LINE",
"1324 863 LINE"
);
}
);
width = 1382;
}
);
unicode = 10CFF;
},
{
glyphname = uni10C80.ltr;
layers = (
{
layerId = "10FB5B92-D81B-4903-B019-4239E442CDDF";
paths = (
{
closed = 1;
nodes = (
"199 4 LINE",
"199 1465 LINE",
"392 1465 LINE",
"976 958 LINE",
"976 760 LINE",
"378 760 LINE",
"378 4 LINE"
);
},
{
closed = 1;
nodes = (
"812 916 LINE",
"378 1285 LINE",
"378 916 LINE"
);
}
);
width = 1080;
}
);
},
{
glyphname = uni10C81.ltr;
layers = (
{
layerId = "10FB5B92-D81B-4903-B019-4239E442CDDF";
paths = (
{
closed = 1;
nodes = (
"199 2 LINE",
"199 1463 LINE",
"384 1463 LINE",
"950 964 LINE",
"950 822 LINE",
"378 442 LINE",
"378 2 LINE"
);
},
{
closed = 1;
nodes = (
"782 904 LINE",
"378 1265 LINE",
"378 637 LINE"
);
}
);
width = 1054;
}
);
},
{
glyphname = uni10C82.ltr;
layers = (
{
layerId = "10FB5B92-D81B-4903-B019-4239E442CDDF";
paths = (
{
closed = 1;
nodes = (
"1162 1 LINE",
"694 639 LINE",
"231 -1 LINE",
"8 -1 LINE",
"573 759 LINE",
"48 1461 LINE",
"255 1461 LINE",
"688 869 LINE",
"1115 1461 LINE",
"1334 1461 LINE",
"808 756 LINE",
"1370 1 LINE"
);
}
);
width = 1378;
}
);
},
{
glyphname = uni10C83.ltr;
layers = (
{
layerId = "10FB5B92-D81B-4903-B019-4239E442CDDF";
paths = (
{
closed = 1;
nodes = (
"1706 841 OFFCURVE",
"1706 739 CURVE SMOOTH",
"1706 617 OFFCURVE",
"1662 502 CURVE SMOOTH",
"1623 398 OFFCURVE",
"1547 302 CURVE",
"1666 165 LINE",
"1945 282 LINE",
"2009 152 LINE",
"1615 0 LINE",
"1441 189 LINE",
"1389 140 OFFCURVE",
"1270 44 OFFCURVE",
"1200 -2 CURVE",
"1014 -2 LINE",
"944 45 OFFCURVE",
"821 143 OFFCURVE",
"769 193 CURVE",
"590 0 LINE",
"199 152 LINE",
"259 282 LINE",
"540 165 LINE",
"663 308 LINE",
"588 403 OFFCURVE",
"550 506 CURVE SMOOTH",
"499 640 OFFCURVE",
"501 742 CURVE SMOOTH",
"503 849 OFFCURVE",
"557 987 CURVE",
"663 1151 LINE",
"540 1292 LINE",
"259 1175 LINE",
"199 1307 LINE",
"590 1457 LINE",
"769 1264 LINE",
"821 1316 OFFCURVE",
"944 1414 OFFCURVE",
"1012 1459 CURVE",
"1200 1459 LINE",
"1270 1413 OFFCURVE",
"1389 1320 OFFCURVE",
"1441 1268 CURVE",
"1615 1457 LINE",
"2009 1307 LINE",
"1945 1175 LINE",
"1666 1292 LINE",
"1547 1155 LINE",
"1622 1062 OFFCURVE",
"1662 955 CURVE SMOOTH"
);
},
{
closed = 1;
nodes = (
"670 821 OFFCURVE",
"671 742 CURVE SMOOTH",
"672 635 OFFCURVE",
"736 510 CURVE SMOOTH",
"788 408 OFFCURVE",
"876 318 CURVE SMOOTH",
"966 226 OFFCURVE",
"1102 121 CURVE",
"1110 121 LINE",
"1248 226 OFFCURVE",
"1427 411 OFFCURVE",
"1472 510 CURVE SMOOTH",
"1531 641 OFFCURVE",
"1531 742 CURVE SMOOTH",
"1531 825 OFFCURVE",
"1472 946 CURVE SMOOTH",
"1420 1053 OFFCURVE",
"1338 1138 CURVE SMOOTH",
"1248 1231 OFFCURVE",
"1110 1336 CURVE",
"1102 1341 LINE",
"966 1236 OFFCURVE",
"876 1140 CURVE SMOOTH",
"784 1043 OFFCURVE",
"731 940 CURVE SMOOTH"
);
}
);
width = 2208;
}
);
},
{
glyphname = uni10C84.ltr;
layers = (
{
layerId = "10FB5B92-D81B-4903-B019-4239E442CDDF";
paths = (
{
closed = 1;
nodes = (
"585 1 LINE",
"585 1230 LINE",
"222 921 LINE",
"104 1043 LINE",
"601 1464 LINE",
"749 1464 LINE",
"1245 1043 LINE",
"1127 921 LINE",
"765 1230 LINE",
"765 1 LINE"
);
}
);
width = 1349;
}
);
},
{
glyphname = uni10C85.ltr;
layers = (
{
layerId = "10FB5B92-D81B-4903-B019-4239E442CDDF";
paths = (
{
closed = 1;
nodes = (
"601 5 LINE",
"104 426 LINE",
"222 545 LINE",
"585 239 LINE",
"585 1234 LINE",
"222 927 LINE",
"118 1047 LINE",
"601 1468 LINE",
"749 1468 LINE",
"1231 1047 LINE",
"1127 927 LINE",
"765 1234 LINE",
"765 239 LINE",
"1127 545 LINE",
"1245 426 LINE",
"749 5 LINE"
);
}
);
width = 1349;
}
);
},
{
glyphname = uni10C86.ltr;
layers = (
{
layerId = "10FB5B92-D81B-4903-B019-4239E442CDDF";
paths = (
{
closed = 1;
nodes = (
"1190 2 LINE",
"378 493 LINE",
"378 2 LINE",
"199 2 LINE",
"199 1465 LINE",
"372 1465 LINE",
"1184 978 LINE",
"1184 1465 LINE",
"1363 1465 LINE",
"1363 2 LINE"
);
},
{
closed = 1;
nodes = (
"1184 790 LINE",
"378 1275 LINE",
"378 676 LINE",
"1184 202 LINE"
);
}
);
width = 1562;
}
);
},
{
glyphname = uni10C87.ltr;
layers = (
{
layerId = "10FB5B92-D81B-4903-B019-4239E442CDDF";
paths = (
{
closed = 1;
nodes = (
"519 4 LINE",
"519 742 LINE",
"104 958 LINE",
"182 1098 LINE",
"519 918 LINE",
"519 1467 LINE",
"711 1467 LINE",
"711 822 LINE",
"1125 613 LINE",
"1047 476 LINE",
"711 651 LINE",
"711 4 LINE"
);
}
);
width = 1229;
}
);
},
{
glyphname = uni10C88.ltr;
layers = (
{
layerId = "10FB5B92-D81B-4903-B019-4239E442CDDF";
paths = (
{
closed = 1;
nodes = (
"1353 4 LINE",
"885 645 LINE",
"422 4 LINE",
"199 4 LINE",
"744 737 LINE",
"269 859 LINE",
"300 981 LINE",
"676 882 LINE",
"239 1461 LINE",
"446 1461 LINE",
"879 875 LINE",
"1306 1461 LINE",
"1525 1461 LINE",
"1023 793 LINE",
"1509 668 LINE",
"1461 552 LINE",
"1080 652 LINE",
"1561 4 LINE"
);
}
);
width = 1760;
}
);
},
{
glyphname = uni10C89.ltr;
layers = (
{
layerId = "10FB5B92-D81B-4903-B019-4239E442CDDF";
paths = (
{
closed = 1;
nodes = (
"240 1089 OFFCURVE",
"356 1190 CURVE",
"127 1354 LINE",
"225 1457 LINE",
"474 1280 LINE",
"536 1324 OFFCURVE",
"685 1414 OFFCURVE",
"775 1462 CURVE",
"896 1352 LINE",
"810 1306 OFFCURVE",
"669 1222 OFFCURVE",
"611 1183 CURVE",
"862 1007 LINE",
"753 908 LINE",
"494 1093 LINE",
"404 1016 OFFCURVE",
"353 920 CURVE SMOOTH",
"305 831 OFFCURVE",
"305 739 CURVE SMOOTH",
"305 648 OFFCURVE",
"352 541 CURVE SMOOTH",
"390 456 OFFCURVE",
"486 371 CURVE",
"753 560 LINE",
"862 465 LINE",
"603 280 LINE",
"650 249 OFFCURVE",
"730 202 CURVE SMOOTH",
"800 161 OFFCURVE",
"886 117 CURVE",
"785 1 LINE",
"691 51 OFFCURVE",
"534 143 OFFCURVE",
"470 187 CURVE",
"225 14 LINE",
"127 117 LINE",
"352 276 LINE",
"229 383 OFFCURVE",
"177 492 CURVE SMOOTH",
"123 605 OFFCURVE",
"123 749 CURVE SMOOTH",
"123 869 OFFCURVE",
"178 972 CURVE SMOOTH"
);
}
);
width = 959;
}
);
},
{
glyphname = uni10C8A.ltr;
layers = (
{
layerId = "10FB5B92-D81B-4903-B019-4239E442CDDF";
paths = (
{
closed = 1;
nodes = (
"247 1098 OFFCURVE",
"369 1197 CURVE",
"313 1235 OFFCURVE",
"181 1311 OFFCURVE",
"104 1353 CURVE",
"225 1463 LINE",
"389 1376 OFFCURVE",
"502 1299 CURVE",
"616 1375 OFFCURVE",
"779 1463 CURVE",
"901 1356 LINE",
"857 1334 OFFCURVE",
"757 1274 CURVE SMOOTH",
"691 1235 OFFCURVE",
"638 1199 CURVE",
"763 1094 OFFCURVE",
"826 976 CURVE SMOOTH",
"884 869 OFFCURVE",
"884 744 CURVE SMOOTH",
"884 602 OFFCURVE",
"826 486 CURVE",
"769 375 OFFCURVE",
"634 264 CURVE",
"688 229 OFFCURVE",
"817 157 OFFCURVE",
"891 119 CURVE",
"787 2 LINE",
"705 46 OFFCURVE",
"562 128 OFFCURVE",
"502 168 CURVE",
"442 128 OFFCURVE",
"299 46 OFFCURVE",
"217 2 CURVE",
"217 2 OFFCURVE",
"114 119 CURVE",
"190 159 OFFCURVE",
"317 230 OFFCURVE",
"371 264 CURVE",
"237 375 OFFCURVE",
"180 487 CURVE SMOOTH",
"115 614 OFFCURVE",
"114 744 CURVE",
"114 861 OFFCURVE",
"178 976 CURVE SMOOTH"
);
},
{
closed = 1;
nodes = (
"587 1030 OFFCURVE",
"502 1099 CURVE",
"412 1024 OFFCURVE",
"352 923 CURVE SMOOTH",
"295 825 OFFCURVE",
"295 749 CURVE SMOOTH",
"295 653 OFFCURVE",
"354 536 CURVE SMOOTH",
"398 447 OFFCURVE",
"502 360 CURVE",
"606 447 OFFCURVE",
"650 537 CURVE SMOOTH",
"710 657 OFFCURVE",
"710 759 CURVE SMOOTH",
"710 828 OFFCURVE",
"652 924 CURVE SMOOTH"
);
}
);
width = 1005;
}
);
},
{
glyphname = uni10C8B.ltr;
layers = (
{
layerId = "10FB5B92-D81B-4903-B019-4239E442CDDF";
paths = (
{
closed = 1;
nodes = (
"308 1101 OFFCURVE",
"521 1218 CURVE",
"308 1360 LINE",
"424 1467 LINE",
"806 1204 LINE",
"635 1123 OFFCURVE",
"526 1050 CURVE SMOOTH",
"422 981 OFFCURVE",
"364 902 CURVE SMOOTH",
"298 811 OFFCURVE",
"298 738 CURVE SMOOTH",
"298 666 OFFCURVE",
"365 571 CURVE SMOOTH",
"418 496 OFFCURVE",
"634 350 OFFCURVE",
"806 270 CURVE",
"424 6 LINE",
"308 115 LINE",
"521 256 LINE",
"310 372 OFFCURVE",
"218 485 CURVE SMOOTH",
"128 594 OFFCURVE",
"128 738 CURVE SMOOTH",
"128 881 OFFCURVE",
"217 990 CURVE SMOOTH"
);
}
);
width = 869;
}
);
},
{
glyphname = uni10C8C.ltr;
layers = (
{
layerId = "10FB5B92-D81B-4903-B019-4239E442CDDF";
paths = (
{
closed = 1;
nodes = (
"728 1337 LINE",
"630 1271 OFFCURVE",
"584 1231 CURVE SMOOTH",
"553 1204 OFFCURVE",
"472 1114 CURVE",
"740 832 LINE",
"1006 1109 LINE",
"956 1167 OFFCURVE",
"890 1223 CURVE SMOOTH",
"845 1261 OFFCURVE",
"740 1336 CURVE"
);
},
{
closed = 1;
nodes = (
"1339 885 OFFCURVE",
"1339 733 CURVE SMOOTH",
"1339 576 OFFCURVE",
"1280 456 CURVE SMOOTH",
"1218 331 OFFCURVE",
"990 113 OFFCURVE",
"830 6 CURVE",
"830 6 OFFCURVE",
"645 6 CURVE",
"485 113 OFFCURVE",
"256 331 OFFCURVE",
"194 456 CURVE SMOOTH",
"124 599 OFFCURVE",
"124 753 CURVE SMOOTH",
"124 874 OFFCURVE",
"194 1016 CURVE SMOOTH",
"257 1143 OFFCURVE",
"370 1252 CURVE SMOOTH",
"485 1361 OFFCURVE",
"643 1467 CURVE",
"830 1467 LINE",
"990 1361 OFFCURVE",
"1104 1252 CURVE SMOOTH",
"1226 1134 OFFCURVE",
"1280 1016 CURVE SMOOTH"
);
},
{
closed = 1;
nodes = (
"647 732 LINE",
"388 1006 LINE",
"318 886 OFFCURVE",
"318 736 CURVE SMOOTH",
"318 657 OFFCURVE",
"354 526 OFFCURVE",
"390 464 CURVE"
);
},
{
closed = 1;
nodes = (
"832 732 LINE",
"1088 469 LINE",
"1180 556 OFFCURVE",
"1184 733 CURVE SMOOTH",
"1187 856 OFFCURVE",
"1088 1000 CURVE"
);
},
{
closed = 1;
nodes = (
"740 133 LINE",
"845 208 OFFCURVE",
"890 246 CURVE SMOOTH",
"956 302 OFFCURVE",
"1006 360 CURVE",
"740 637 LINE",
"472 355 LINE",
"553 265 OFFCURVE",
"584 238 CURVE SMOOTH",
"630 198 OFFCURVE",
"728 132 CURVE"
);
}
);
width = 1463;
}
);
},
{
glyphname = uni10C8D.ltr;
layers = (
{
layerId = "10FB5B92-D81B-4903-B019-4239E442CDDF";
paths = (
{
closed = 1;
nodes = (
"1354 3 LINE",
"956 891 LINE",
"869 1082 LINE",
"835 1166 OFFCURVE",
"802 1251 CURVE",
"783 1251 LINE",
"757 1205 OFFCURVE",
"715 1084 CURVE SMOOTH",
"709 1067 OFFCURVE",
"646 903 CURVE",
"618 827 LINE",
"986 6 LINE",
"798 6 LINE",
"518 625 LINE",
"238 9 LINE",
"41 9 LINE",
"705 1461 LINE",
"878 1461 LINE",
"1554 3 LINE"
);
}
);
width = 1595;
}
);
},
{
glyphname = uni10C8E.ltr;
layers = (
{
layerId = "10FB5B92-D81B-4903-B019-4239E442CDDF";
paths = (
{
closed = 1;
nodes = (
"519 6 LINE",
"519 478 LINE",
"104 675 LINE",
"182 804 LINE",
"519 645 LINE",
"519 910 LINE",
"104 1107 LINE",
"182 1236 LINE",
"519 1077 LINE",
"519 1467 LINE",
"711 1467 LINE",
"711 986 LINE",
"1125 787 LINE",
"1047 662 LINE",
"711 821 LINE",
"711 554 LINE",
"1125 355 LINE",
"1047 228 LINE",
"711 389 LINE",
"711 6 LINE"
);
}
);
width = 1229;
}
);
},
{
glyphname = uni10C8F.ltr;
layers = (
{
layerId = "10FB5B92-D81B-4903-B019-4239E442CDDF";
paths = (
{
closed = 1;
nodes = (
"1047 3 LINE",
"712 277 LINE",
"375 3 LINE",
"132 3 LINE",
"593 370 LINE",
"104 759 LINE",
"593 1123 LINE",
"132 1464 LINE",
"375 1464 LINE",
"712 1209 LINE",
"1051 1464 LINE",
"1290 1464 LINE",
"830 1123 LINE",
"1316 759 LINE",
"830 370 LINE",
"1290 3 LINE"
);
},
{
closed = 1;
nodes = (
"1071 761 LINE",
"712 1030 LINE",
"353 761 LINE",
"712 470 LINE"
);
}
);
width = 1420;
}
);
},
{
glyphname = uni10C90.ltr;
layers = (
{
layerId = "10FB5B92-D81B-4903-B019-4239E442CDDF";
paths = (
{
closed = 1;
nodes = (
"519 4 LINE",
"519 989 LINE",
"104 1201 LINE",
"182 1340 LINE",
"519 1169 LINE",
"519 1465 LINE",
"711 1465 LINE",
"711 1071 LINE",
"1125 857 LINE",
"1047 722 LINE",
"711 893 LINE",
"711 4 LINE"
);
}
);
width = 1229;
}
);
},
{
glyphname = uni10C91.ltr;
layers = (
{
layerId = "10FB5B92-D81B-4903-B019-4239E442CDDF";
paths = (
{
closed = 1;
nodes = (
"488 3 LINE",
"488 1301 LINE",
"104 1483 LINE",
"182 1610 LINE",
"1125 1168 LINE",
"1047 1042 LINE",
"685 1211 LINE",
"685 3 LINE"
);
}
);
width = 1229;
}
);
},
{
glyphname = uni10C92.ltr;
layers = (
{
layerId = "10FB5B92-D81B-4903-B019-4239E442CDDF";
paths = (
{
closed = 1;
nodes = (
"199 0 LINE",
"199 1463 LINE",
"350 1463 LINE",
"960 896 LINE",
"850 782 LINE",
"376 1225 LINE",
"376 0 LINE"
);
}
);
width = 1064;
}
);
},
{
glyphname = uni10C93.ltr;
layers = (
{
layerId = "10FB5B92-D81B-4903-B019-4239E442CDDF";
paths = (
{
closed = 1;
nodes = (
"730 0 LINE",
"250 731 LINE",
"730 1463 LINE",
"913 1463 LINE",
"1393 731 LINE",
"913 0 LINE"
);
},
{
closed = 1;
nodes = (
"1194 731 LINE",
"821 1303 LINE",
"452 731 LINE",
"821 162 LINE"
);
}
);
width = 1643;
}
);
},
{
glyphname = uni10C94.ltr;
layers = (
{
layerId = "10FB5B92-D81B-4903-B019-4239E442CDDF";
paths = (
{
closed = 1;
nodes = (
"601 4 LINE",
"104 425 LINE",
"222 546 LINE",
"585 236 LINE",
"585 1467 LINE",
"749 1467 LINE",
"1245 1046 LINE",
"1127 924 LINE",
"765 1233 LINE",
"765 4 LINE"
);
}
);
width = 1349;
}
);
},
{
glyphname = uni10C95.ltr;
layers = (
{
layerId = "10FB5B92-D81B-4903-B019-4239E442CDDF";
paths = (
{
closed = 1;
nodes = (
"848 608 LINE",
"421 5 LINE",
"8 167 LINE",
"74 280 LINE",
"341 170 LINE",
"756 741 LINE",
"353 1297 LINE",
"86 1188 LINE",
"20 1301 LINE",
"433 1466 LINE",
"848 874 LINE",
"1260 1466 LINE",
"1675 1301 LINE",
"1607 1188 LINE",
"1342 1297 LINE",
"938 741 LINE",
"1354 170 LINE",
"1619 280 LINE",
"1687 167 LINE",
"1272 5 LINE"
);
}
);
width = 1695;
}
);
},
{
glyphname = uni10C96.ltr;
layers = (
{
layerId = "10FB5B92-D81B-4903-B019-4239E442CDDF";
paths = (
{
closed = 1;
nodes = (
"1361 3 LINE",
"935 943 LINE SMOOTH",
"886 1050 OFFCURVE",
"858 1119 CURVE SMOOTH",
"817 1222 OFFCURVE",
"800 1270 CURVE",
"792 1270 LINE",
"770 1202 OFFCURVE",
"710 1058 OFFCURVE",
"674 972 CURVE",
"1110 -1 LINE",
"931 -1 LINE",
"582 772 LINE",
"462 508 LINE",
"694 2 LINE",
"518 2 LINE",
"374 317 LINE",
"231 -1 LINE",
"34 -1 LINE",
"708 1463 LINE",
"879 1463 LINE",
"1561 3 LINE"
);
}
);
width = 1595;
}
);
},
{
glyphname = uni10C97.ltr;
layers = (
{
layerId = "10FB5B92-D81B-4903-B019-4239E442CDDF";
paths = (
{
closed = 1;
nodes = (
"241 1135 OFFCURVE",
"360 1250 CURVE SMOOTH",
"473 1360 OFFCURVE",
"629 1466 CURVE",
"816 1466 LINE",
"970 1360 OFFCURVE",
"1084 1250 CURVE SMOOTH",
"1196 1142 OFFCURVE",
"1258 1020 CURVE",
"1334 867 OFFCURVE",
"1334 753 CURVE SMOOTH",
"1334 608 OFFCURVE",
"1256 455 CURVE",
"1195 330 OFFCURVE",
"970 112 OFFCURVE",
"814 5 CURVE",
"629 5 LINE",
"473 112 OFFCURVE",
"247 330 OFFCURVE",
"186 454 CURVE SMOOTH",
"124 583 OFFCURVE",
"124 733 CURVE SMOOTH",
"124 878 OFFCURVE",
"186 1016 CURVE"
);
},
{
closed = 1;
nodes = (
"881 1223 OFFCURVE",
"726 1344 CURVE",
"719 1344 LINE",
"635 1280 OFFCURVE",
"503 1166 OFFCURVE",
"453 1110 CURVE",
"1073 483 LINE",
"1133 596 OFFCURVE",
"1133 737 CURVE SMOOTH",
"1133 842 OFFCURVE",
"1074 976 CURVE SMOOTH",
"1038 1057 OFFCURVE",
"952 1148 CURVE SMOOTH"
);
},
{
closed = 1;
nodes = (
"300 634 OFFCURVE",
"354 518 CURVE SMOOTH",
"403 413 OFFCURVE",
"491 324 CURVE SMOOTH",
"581 233 OFFCURVE",
"719 129 CURVE",
"729 128 LINE",
"811 192 OFFCURVE",
"939 305 OFFCURVE",
"989 363 CURVE",
"375 1005 LINE",
"311 893 OFFCURVE",
"304 726 CURVE SMOOTH"
);
}
);
width = 1458;
}
);
},
{
glyphname = uni10C98.ltr;
layers = (
{
layerId = "10FB5B92-D81B-4903-B019-4239E442CDDF";
paths = (
{
closed = 1;
nodes = (
"199 4 LINE",
"199 1465 LINE",
"389 1465 LINE",
"946 1108 LINE",
"946 942 LINE",
"576 715 LINE",
"946 541 LINE",
"946 378 LINE",
"389 4 LINE"
);
},
{
closed = 1;
nodes = (
"779 1022 LINE",
"379 1291 LINE",
"379 782 LINE"
);
},
{
closed = 1;
nodes = (
"779 448 LINE",
"379 640 LINE",
"379 172 LINE"
);
}
);
width = 1050;
}
);
},
{
glyphname = uni10C99.ltr;
layers = (
{
layerId = "10FB5B92-D81B-4903-B019-4239E442CDDF";
paths = (
{
closed = 1;
nodes = (
"279 1120 OFFCURVE",
"402 1219 CURVE SMOOTH",
"545 1333 OFFCURVE",
"789 1461 CURVE",
"911 1352 LINE",
"744 1262 OFFCURVE",
"517 1108 OFFCURVE",
"449 1038 CURVE SMOOTH",
"394 981 OFFCURVE",
"351 892 CURVE SMOOTH",
"302 789 OFFCURVE",
"305 739 CURVE SMOOTH",
"313 624 OFFCURVE",
"377 514 CURVE SMOOTH",
"433 419 OFFCURVE",
"687 227 OFFCURVE",
"901 116 CURVE",
"799 0 OFFCURVE",
"799 0 CURVE",
"551 130 OFFCURVE",
"262 354 OFFCURVE",
"198 471 CURVE SMOOTH",
"125 604 OFFCURVE",
"125 769 CURVE SMOOTH",
"125 870 OFFCURVE",
"197 987 CURVE SMOOTH"
);
}
);
width = 974;
}
);
},
{
glyphname = uni10C9A.ltr;
layers = (
{
layerId = "10FB5B92-D81B-4903-B019-4239E442CDDF";
paths = (
{
closed = 1;
nodes = (
"269 1122 OFFCURVE",
"415 1233 CURVE SMOOTH",
"562 1344 OFFCURVE",
"813 1462 CURVE",
"992 1462 LINE",
"992 1 LINE",
"813 1 LINE",
"565 117 OFFCURVE",
"414 227 CURVE SMOOTH",
"260 339 OFFCURVE",
"194 460 CURVE",
"131 579 OFFCURVE",
"131 754 CURVE SMOOTH",
"131 888 OFFCURVE",
"195 996 CURVE SMOOTH"
);
},
{
closed = 1;
nodes = (
"296 856 OFFCURVE",
"296 744 CURVE SMOOTH",
"296 621 OFFCURVE",
"364 521 CURVE SMOOTH",
"442 406 OFFCURVE",
"524 344 CURVE SMOOTH",
"633 263 OFFCURVE",
"813 175 CURVE",
"813 1297 LINE",
"630 1203 OFFCURVE",
"520 1117 CURVE SMOOTH",
"457 1067 OFFCURVE",
"362 937 CURVE"
);
}
);
width = 1191;
}
);
},
{
glyphname = uni10C9B.ltr;
layers = (
{
layerId = "10FB5B92-D81B-4903-B019-4239E442CDDF";
paths = (
{
closed = 1;
nodes = (
"227 1104 OFFCURVE",
"346 1220 CURVE SMOOTH",
"463 1336 OFFCURVE",
"659 1468 CURVE",
"1129 1110 LINE",
"1005 1010 LINE",
"663 1271 LINE",
"531 1178 OFFCURVE",
"455 1095 CURVE SMOOTH",
"379 1012 OFFCURVE",
"345 924 CURVE SMOOTH",
"309 831 OFFCURVE",
"309 718 CURVE SMOOTH",
"309 623 OFFCURVE",
"345 524 CURVE SMOOTH",
"378 433 OFFCURVE",
"523 272 OFFCURVE",
"643 188 CURVE",
"1005 465 LINE",
"1129 365 LINE",
"659 7 LINE",
"479 120 OFFCURVE",
"242 333 OFFCURVE",
"183 452 CURVE SMOOTH",
"126 568 OFFCURVE",
"124 718 CURVE SMOOTH",
"122 866 OFFCURVE",
"176 988 CURVE SMOOTH"
);
}
);
width = 1193;
}
);
},
{
glyphname = uni10C9C.ltr;
layers = (
{
layerId = "10FB5B92-D81B-4903-B019-4239E442CDDF";
paths = (
{
closed = 1;
nodes = (
"306 810 OFFCURVE",
"313 710 CURVE SMOOTH",
"322 570 OFFCURVE",
"393 449 CURVE SMOOTH",
"465 328 OFFCURVE",
"644 194 CURVE",
"963 457 LINE",
"680 712 LINE",
"799 815 LINE",
"1206 445 LINE",
"660 4 LINE",
"480 122 OFFCURVE",
"361 231 CURVE SMOOTH",
"245 338 OFFCURVE",
"184 460 CURVE SMOOTH",
"125 580 OFFCURVE",
"125 719 CURVE SMOOTH",
"125 854 OFFCURVE",
"229 1092 OFFCURVE",
"346 1210 CURVE SMOOTH",
"464 1328 OFFCURVE",
"660 1465 CURVE",
"779 1342 LINE",
"604 1221 OFFCURVE",
"504 1123 CURVE SMOOTH",
"406 1028 OFFCURVE",
"362 930 CURVE"
);
}
);
width = 1269;
}
);
},
{
glyphname = uni10C9D.ltr;
layers = (
{
layerId = "10FB5B92-D81B-4903-B019-4239E442CDDF";
paths = (
{
closed = 1;
nodes = (
"138 116 LINE",
"514 570 LINE",
"104 918 LINE",
"594 1461 LINE",
"741 1343 LINE",
"349 918 LINE",
"761 572 LINE",
"303 -2 LINE"
);
}
);
width = 865;
}
);
},
{
glyphname = uni10C9E.ltr;
layers = (
{
layerId = "10FB5B92-D81B-4903-B019-4239E442CDDF";
paths = (
{
closed = 1;
nodes = (
"794 2 LINE",
"794 744 LINE",
"238 3 LINE",
"10 3 LINE",
"587 754 LINE",
"28 1464 LINE",
"246 1464 LINE",
"794 748 LINE",
"794 1463 LINE",
"973 1463 LINE",
"973 2 LINE"
);
}
);
width = 1172;
}
);
},
{
glyphname = uni10C9F.ltr;
layers = (
{
layerId = "10FB5B92-D81B-4903-B019-4239E442CDDF";
paths = (
{
closed = 1;
nodes = (
"756 7 LINE",
"644 79 OFFCURVE",
"471 214 OFFCURVE",
"407 283 CURVE",
"221 147 LINE",
"125 239 LINE",
"325 384 LINE",
"221 534 OFFCURVE",
"221 721 CURVE SMOOTH",
"221 817 OFFCURVE",
"245 902 CURVE SMOOTH",
"269 986 OFFCURVE",
"323 1067 CURVE",
"131 1207 LINE",
"227 1302 LINE",
"403 1172 LINE",
"465 1242 OFFCURVE",
"552 1314 CURVE SMOOTH",
"640 1386 OFFCURVE",
"756 1467 CURVE",
"875 1346 LINE",
"761 1266 OFFCURVE",
"599 1130 OFFCURVE",
"543 1069 CURVE",
"650 990 LINE",
"555 898 LINE",
"467 962 LINE",
"409 851 OFFCURVE",
"409 721 CURVE SMOOTH",
"409 596 OFFCURVE",
"463 487 CURVE",
"555 554 LINE",
"650 463 LINE",
"537 378 LINE",
"575 333 OFFCURVE",
"674 244 OFFCURVE",
"738 195 CURVE",
"1051 452 LINE",
"768 706 LINE",
"895 810 LINE",
"1302 445 LINE",
"1292 441 LINE",
"1298 439 LINE"
);
}
);
width = 1365;
}
);
},
{
glyphname = uni10CA0.ltr;
layers = (
{
layerId = "10FB5B92-D81B-4903-B019-4239E442CDDF";
paths = (
{
closed = 1;
nodes = (
"283 274 LINE",
"283 4 LINE",
"104 4 LINE",
"104 1465 LINE",
"265 1465 LINE",
"821 1041 LINE",
"711 937 LINE",
"283 1251 LINE",
"283 960 LINE",
"821 552 LINE",
"711 449 LINE",
"283 760 LINE",
"283 472 LINE",
"821 68 LINE",
"711 -36 LINE"
);
}
);
width = 925;
}
);
},
{
glyphname = uni10CA1.ltr;
layers = (
{
layerId = "10FB5B92-D81B-4903-B019-4239E442CDDF";
paths = (
{
closed = 1;
nodes = (
"827 173 OFFCURVE",
"590 -56 CURVE",
"460 48 LINE",
"719 280 LINE",
"657 353 OFFCURVE",
"572 506 OFFCURVE",
"550 592 CURVE",
"281 451 LINE",
"199 585 LINE",
"536 742 LINE",
"538 848 OFFCURVE",
"576 954 CURVE SMOOTH",
"614 1061 OFFCURVE",
"705 1162 CURVE",
"701 1168 LINE",
"440 1051 LINE",
"363 1187 LINE",
"1046 1463 LINE",
"1244 1463 LINE",
"1927 1187 LINE",
"1850 1051 LINE",
"1587 1168 LINE",
"1581 1162 LINE",
"1675 1062 OFFCURVE",
"1738 848 OFFCURVE",
"1740 742 CURVE",
"2077 585 LINE",
"1993 451 LINE",
"1724 592 LINE",
"1686 428 OFFCURVE",
"1557 280 CURVE",
"1828 48 LINE",
"1700 -56 LINE",
"1451 173 LINE",
"1402 130 OFFCURVE",
"1352 87 CURVE SMOOTH",
"1301 43 OFFCURVE",
"1244 2 CURVE",
"1048 2 LINE",
"1015 23 OFFCURVE",
"932 87 CURVE",
"894 115 OFFCURVE",
"827 173 CURVE"
);
},
{
closed = 1;
nodes = (
"1362 1224 OFFCURVE",
"1152 1331 CURVE",
"1125 1331 LINE",
"928 1223 OFFCURVE",
"851 1127 CURVE SMOOTH",
"701 940 OFFCURVE",
"696 747 CURVE SMOOTH",
"692 598 OFFCURVE",
"838 406 CURVE SMOOTH",
"948 262 OFFCURVE",
"1144 129 CURVE",
"1152 129 LINE",
"1350 262 OFFCURVE",
"1458 406 CURVE SMOOTH",
"1564 547 OFFCURVE",
"1566 742 CURVE SMOOTH",
"1568 930 OFFCURVE",
"1466 1075 CURVE SMOOTH"
);
}
);
width = 2276;
}
);
},
{
glyphname = uni10CA2.ltr;
layers = (
{
layerId = "10FB5B92-D81B-4903-B019-4239E442CDDF";
paths = (
{
closed = 1;
nodes = (
"1162 5 LINE",
"1162 454 LINE",
"378 938 LINE",
"378 5 LINE",
"199 5 LINE",
"199 1466 LINE",
"378 1466 LINE",
"378 1124 LINE",
"1162 629 LINE",
"1162 1466 LINE",
"1342 1466 LINE",
"1342 5 LINE"
);
}
);
width = 1541;
}
);
},
{
glyphname = uni10CA3.ltr;
layers = (
{
layerId = "10FB5B92-D81B-4903-B019-4239E442CDDF";
paths = (
{
closed = 1;
nodes = (
"104 917 LINE",
"188 1065 LINE",
"1109 520 LINE",
"1027 373 LINE"
);
}
);
width = 1213;
}
);
},
{
glyphname = uni10CA4.ltr;
layers = (
{
layerId = "10FB5B92-D81B-4903-B019-4239E442CDDF";
paths = (
{
closed = 1;
nodes = (
"1228 1 LINE",
"848 939 LINE SMOOTH",
"782 1103 OFFCURVE",
"778 1112 CURVE SMOOTH",
"754 1169 OFFCURVE",
"726 1264 CURVE",
"718 1264 LINE",
"698 1194 OFFCURVE",
"666 1112 CURVE SMOOTH",
"640 1043 OFFCURVE",
"600 943 CURVE",
"214 1 LINE",
"24 1 LINE",
"626 1461 LINE",
"806 1461 LINE",
"1418 1 LINE"
);
}
);
width = 1443;
}
);
},
{
glyphname = uni10CA5.ltr;
layers = (
{
layerId = "10FB5B92-D81B-4903-B019-4239E442CDDF";
paths = (
{
closed = 1;
nodes = (
"250 4 LINE",
"250 1465 LINE",
"429 1465 LINE",
"429 4 LINE"
);
}
);
width = 679;
}
);
},
{
glyphname = uni10CA6.ltr;
layers = (
{
layerId = "10FB5B92-D81B-4903-B019-4239E442CDDF";
paths = (
{
closed = 1;
nodes = (
"199 3 LINE",
"199 1464 LINE",
"378 1464 LINE",
"378 803 LINE",
"874 1461 LINE",
"1018 1371 LINE",
"378 546 LINE",
"378 3 LINE"
);
}
);
width = 1122;
}
);
},
{
glyphname = uni10CA7.ltr;
layers = (
{
layerId = "10FB5B92-D81B-4903-B019-4239E442CDDF";
paths = (
{
closed = 1;
nodes = (
"935 2 LINE",
"935 840 LINE",
"530 1243 LINE",
"313 1032 LINE",
"199 1141 LINE",
"534 1461 LINE",
"935 1058 LINE",
"935 1463 LINE",
"1115 1463 LINE",
"1115 1060 LINE",
"1513 1461 LINE",
"1848 1141 LINE",
"1736 1032 LINE",
"1519 1243 LINE",
"1115 842 LINE",
"1115 2 LINE"
);
}
);
width = 2047;
}
);
},
{
glyphname = uni10CA8.ltr;
layers = (
{
layerId = "10FB5B92-D81B-4903-B019-4239E442CDDF";
paths = (
{
closed = 1;
nodes = (
"652 0 LINE",
"445 297 LINE",
"231 2 LINE",
"8 2 LINE",
"582 766 LINE",
"48 1461 LINE",
"255 1461 LINE",
"688 891 LINE",
"820 1074 LINE",
"555 1461 LINE",
"746 1461 LINE",
"925 1204 LINE",
"1115 1461 LINE",
"1334 1461 LINE",
"797 755 LINE",
"1370 2 LINE",
"1162 2 LINE",
"704 643 LINE",
"548 428 LINE",
"844 0 LINE"
);
}
);
width = 1378;
}
);
},
{
glyphname = uni10CA9.ltr;
layers = (
{
layerId = "10FB5B92-D81B-4903-B019-4239E442CDDF";
paths = (
{
closed = 1;
nodes = (
"104 124 LINE",
"626 767 LINE",
"146 1377 LINE",
"257 1460 LINE",
"828 1322 LINE",
"786 1198 LINE",
"381 1300 LINE",
"722 881 LINE",
"1181 1461 LINE",
"1394 1461 LINE",
"829 751 LINE",
"1424 3 LINE",
"1224 3 LINE",
"730 641 LINE",
"343 160 LINE",
"744 261 LINE",
"794 135 LINE",
"221 2 LINE"
);
}
);
width = 1434;
}
);
},
{
glyphname = uni10CAA.ltr;
layers = (
{
layerId = "10FB5B92-D81B-4903-B019-4239E442CDDF";
paths = (
{
closed = 1;
nodes = (
"1272 1 LINE",
"824 330 LINE",
"375 1 LINE",
"199 1 LINE",
"199 1462 LINE",
"375 1462 LINE",
"824 1135 LINE",
"1272 1462 LINE",
"1447 1462 LINE",
"1447 1 LINE"
);
},
{
closed = 1;
nodes = (
"1268 1260 LINE",
"824 945 LINE",
"379 1260 LINE",
"379 203 LINE",
"824 517 LINE",
"1268 203 LINE"
);
}
);
width = 1646;
}
);
},
{
glyphname = uni10CAB.ltr;
layers = (
{
layerId = "10FB5B92-D81B-4903-B019-4239E442CDDF";
paths = (
{
closed = 1;
nodes = (
"1461 0 LINE",
"915 634 LINE",
"362 0 LINE",
"199 0 LINE",
"199 1461 LINE",
"362 1461 LINE",
"915 840 LINE",
"1461 1461 LINE",
"1624 1461 LINE",
"1624 0 LINE"
);
},
{
closed = 1;
nodes = (
"370 1246 LINE",
"373 235 LINE",
"817 736 LINE"
);
},
{
closed = 1;
nodes = (
"1011 739 LINE",
"1469 230 LINE",
"1461 1221 LINE"
);
}
);
width = 1823;
}
);
},
{
glyphname = uni10CAC.ltr;
layers = (
{
layerId = "10FB5B92-D81B-4903-B019-4239E442CDDF";
paths = (
{
closed = 1;
nodes = (
"552 188 OFFCURVE",
"329 -28 CURVE",
"199 76 LINE",
"446 299 LINE",
"370 393 OFFCURVE",
"328 499 CURVE SMOOTH",
"287 605 OFFCURVE",
"287 730 CURVE SMOOTH",
"287 856 OFFCURVE",
"329 962 CURVE SMOOTH",
"371 1069 OFFCURVE",
"446 1165 CURVE",
"199 1384 LINE",
"329 1489 LINE",
"552 1273 LINE",
"604 1324 OFFCURVE",
"662 1370 CURVE SMOOTH",
"721 1416 OFFCURVE",
"789 1461 CURVE",
"976 1461 LINE",
"1044 1413 OFFCURVE",
"1105 1368 CURVE SMOOTH",
"1166 1322 OFFCURVE",
"1216 1273 CURVE",
"1439 1489 LINE",
"1567 1384 LINE",
"1320 1163 LINE",
"1396 1069 OFFCURVE",
"1437 961 CURVE SMOOTH",
"1478 854 OFFCURVE",
"1479 730 CURVE",
"1479 604 OFFCURVE",
"1437 500 CURVE SMOOTH",
"1396 395 OFFCURVE",
"1320 299 CURVE",
"1569 76 LINE",
"1439 -28 LINE",
"1216 188 LINE",
"1164 139 OFFCURVE",
"1104 93 CURVE SMOOTH",
"1058 58 OFFCURVE",
"976 0 CURVE",
"791 0 LINE",
"709 58 OFFCURVE",
"663 93 CURVE SMOOTH",
"604 139 OFFCURVE",
"552 188 CURVE"
);
},
{
closed = 1;
nodes = (
"1201 1053 OFFCURVE",
"1114 1144 CURVE SMOOTH",
"1024 1237 OFFCURVE",
"886 1339 CURVE",
"879 1339 LINE",
"743 1237 OFFCURVE",
"652 1144 CURVE",
"567 1055 OFFCURVE",
"517 951 CURVE SMOOTH",
"456 824 OFFCURVE",
"456 735 CURVE SMOOTH",
"456 643 OFFCURVE",
"517 510 CURVE SMOOTH",
"562 411 OFFCURVE",
"743 227 OFFCURVE",
"879 125 CURVE",
"886 125 LINE",
"1024 227 OFFCURVE",
"1204 411 OFFCURVE",
"1249 510 CURVE SMOOTH",
"1306 635 OFFCURVE",
"1306 735 CURVE SMOOTH",
"1306 830 OFFCURVE",
"1249 951 CURVE SMOOTH"
);
}
);
width = 1768;
}
);
},
{
glyphname = uni10CAD.ltr;
layers = (
{
layerId = "10FB5B92-D81B-4903-B019-4239E442CDDF";
paths = (
{
closed = 1;
nodes = (
"199 2 LINE",
"199 1077 LINE",
"378 1077 LINE",
"1070 558 LINE",
"1070 1461 LINE",
"1250 1461 LINE",
"1250 363 LINE",
"1070 363 LINE",
"378 873 LINE",
"378 2 LINE"
);
}
);
width = 1449;
}
);
},
{
glyphname = uni10CAE.ltr;
layers = (
{
layerId = "10FB5B92-D81B-4903-B019-4239E442CDDF";
paths = (
{
closed = 1;
nodes = (
"1268 4 LINE",
"1268 1263 LINE",
"824 946 LINE",
"379 1263 LINE",
"379 4 LINE",
"199 4 LINE",
"199 1465 LINE",
"375 1465 LINE",
"824 1138 LINE",
"1272 1465 LINE",
"1447 1465 LINE",
"1447 4 LINE"
);
}
);
width = 1646;
}
);
},
{
glyphname = uni10CAF.ltr;
layers = (
{
layerId = "10FB5B92-D81B-4903-B019-4239E442CDDF";
paths = (
{
closed = 1;
nodes = (
"1190 4 LINE",
"378 491 LINE",
"378 4 LINE",
"199 4 LINE",
"199 1465 LINE",
"372 1465 LINE",
"1184 982 LINE",
"1184 1465 LINE",
"1363 1465 LINE",
"1363 4 LINE"
);
},
{
closed = 1;
nodes = (
"1184 814 LINE",
"378 1293 LINE",
"378 1061 LINE",
"1184 582 LINE"
);
},
{
closed = 1;
nodes = (
"1184 415 LINE",
"378 893 LINE",
"378 661 LINE",
"1184 183 LINE"
);
}
);
width = 1562;
}
);
},
{
glyphname = uni10CB0.ltr;
layers = (
{
layerId = "10FB5B92-D81B-4903-B019-4239E442CDDF";
paths = (
{
closed = 1;
nodes = (
"877 1 LINE",
"877 546 LINE",
"199 1365 LINE",
"346 1461 LINE",
"877 822 LINE",
"877 1462 LINE",
"1056 1462 LINE",
"1056 813 LINE",
"1586 1461 LINE",
"1734 1365 LINE",
"1056 546 LINE",
"1056 1 LINE"
);
}
);
width = 1933;
}
);
},
{
glyphname = uni10CB1.ltr;
layers = (
{
layerId = "10FB5B92-D81B-4903-B019-4239E442CDDF";
paths = (
{
closed = 1;
nodes = (
"913 3 LINE",
"530 264 LINE",
"315 49 LINE",
"199 162 LINE",
"534 480 LINE",
"913 195 LINE",
"913 440 LINE",
"530 770 LINE",
"313 555 LINE",
"199 666 LINE",
"534 986 LINE",
"913 653 LINE",
"913 913 LINE",
"530 1264 LINE",
"313 1051 LINE",
"199 1162 LINE",
"534 1482 LINE",
"913 1127 LINE",
"913 1464 LINE",
"1093 1464 LINE",
"1093 1127 LINE",
"1469 1482 LINE",
"1804 1162 LINE",
"1692 1051 LINE",
"1475 1269 LINE",
"1093 913 LINE",
"1093 660 LINE",
"1469 983 LINE",
"1804 663 LINE",
"1692 552 LINE",
"1475 767 LINE",
"1093 447 LINE",
"1093 195 LINE",
"1469 480 LINE",
"1804 162 LINE",
"1692 49 LINE",
"1475 264 LINE",
"1093 3 LINE"
);
}
);
width = 2003;
}
);
},
{
glyphname = uni10CB2.ltr;
layers = (
{
layerId = "10FB5B92-D81B-4903-B019-4239E442CDDF";
paths = (
{
closed = 1;
nodes = (
"1068 1036 OFFCURVE",
"1004 1116 CURVE SMOOTH",
"944 1191 OFFCURVE",
"816 1293 CURVE",
"816 177 LINE",
"930 270 OFFCURVE",
"1004 355 CURVE SMOOTH",
"1052 410 OFFCURVE",
"1116 531 CURVE SMOOTH",
"1171 636 OFFCURVE",
"1171 758 CURVE SMOOTH",
"1171 848 OFFCURVE",
"1116 948 CURVE SMOOTH"
);
},
{
closed = 1;
nodes = (
"1334 878 OFFCURVE",
"1334 733 CURVE SMOOTH",
"1334 583 OFFCURVE",
"1272 454 CURVE SMOOTH",
"1211 330 OFFCURVE",
"985 112 OFFCURVE",
"829 5 CURVE",
"644 5 LINE",
"488 112 OFFCURVE",
"263 330 OFFCURVE",
"202 455 CURVE",
"124 608 OFFCURVE",
"124 753 CURVE SMOOTH",
"124 867 OFFCURVE",
"200 1020 CURVE",
"262 1142 OFFCURVE",
"374 1250 CURVE SMOOTH",
"488 1360 OFFCURVE",
"642 1466 CURVE",
"829 1466 LINE",
"985 1360 OFFCURVE",
"1098 1250 CURVE SMOOTH",
"1217 1135 OFFCURVE",
"1272 1016 CURVE"
);
},
{
closed = 1;
nodes = (
"296 848 OFFCURVE",
"296 758 CURVE SMOOTH",
"296 636 OFFCURVE",
"351 531 CURVE SMOOTH",
"415 410 OFFCURVE",
"462 355 CURVE SMOOTH",
"537 270 OFFCURVE",
"651 177 CURVE",
"651 1293 LINE",
"523 1191 OFFCURVE",
"463 1116 CURVE SMOOTH",
"399 1036 OFFCURVE",
"351 948 CURVE SMOOTH"
);
}
);
width = 1458;
}
);
},
{
glyphname = uni10CC0.ltr;
layers = (
{
layerId = "10FB5B92-D81B-4903-B019-4239E442CDDF";
paths = (
{
closed = 1;
nodes = (
"170 2 LINE",
"170 1100 LINE",
"407 1100 LINE",
"802 749 LINE",
"802 558 LINE",
"344 558 LINE",
"344 2 LINE"
);
},
{
closed = 1;
nodes = (
"650 699 LINE",
"344 964 LINE",
"344 696 LINE"
);
}
);
width = 915;
}
);
},
{
glyphname = uni10CC1.ltr;
layers = (
{
layerId = "10FB5B92-D81B-4903-B019-4239E442CDDF";
paths = (
{
closed = 1;
nodes = (
"170 2 LINE",
"170 1100 LINE",
"339 1100 LINE",
"760 758 LINE",
"760 612 LINE",
"343 300 LINE",
"343 2 LINE"
);
},
{
closed = 1;
nodes = (
"608 687 LINE",
"343 907 LINE",
"343 490 LINE"
);
}
);
width = 873;
}
);
},
{
glyphname = uni10CC2.ltr;
layers = (
{
layerId = "10FB5B92-D81B-4903-B019-4239E442CDDF";
paths = (
{
closed = 1;
nodes = (
"850 2 LINE",
"526 466 LINE",
"207 2 LINE",
"5 2 LINE",
"418 576 LINE",
"35 1100 LINE",
"223 1100 LINE",
"520 683 LINE",
"816 1100 LINE",
"1014 1100 LINE",
"625 572 LINE",
"1038 2 LINE"
);
}
);
width = 1043;
}
);
},
{
glyphname = uni10CC3.ltr;
layers = (
{
layerId = "10FB5B92-D81B-4903-B019-4239E442CDDF";
paths = (
{
closed = 1;
nodes = (
"1291 643 OFFCURVE",
"1291 577 CURVE SMOOTH",
"1291 470 OFFCURVE",
"1260 389 CURVE SMOOTH",
"1231 313 OFFCURVE",
"1177 243 CURVE",
"1249 158 LINE",
"1452 245 LINE",
"1508 124 LINE",
"1205 3 LINE",
"1081 139 LINE",
"1043 104 OFFCURVE",
"957 38 OFFCURVE",
"911 5 CURVE",
"774 5 LINE",
"678 71 OFFCURVE",
"602 141 CURVE",
"475 3 LINE",
"170 124 LINE",
"230 245 LINE",
"429 158 LINE",
"505 247 LINE",
"455 315 OFFCURVE",
"427 392 CURVE SMOOTH",
"391 490 OFFCURVE",
"391 577 CURVE SMOOTH",
"391 627 OFFCURVE",
"427 717 CURVE SMOOTH",
"460 799 OFFCURVE",
"505 861 CURVE",
"429 950 LINE",
"230 861 LINE",
"170 986 LINE",
"475 1106 LINE",
"601 968 LINE",
"641 1005 OFFCURVE",
"726 1067 OFFCURVE",
"774 1102 CURVE",
"911 1102 LINE",
"957 1069 OFFCURVE",
"1043 1007 OFFCURVE",
"1081 972 CURVE",
"1205 1106 LINE",
"1508 986 LINE",
"1452 861 LINE",
"1249 950 LINE",
"1177 867 LINE",
"1228 804 OFFCURVE",
"1260 722 CURVE SMOOTH"
);
},
{
closed = 1;
nodes = (
"993 872 OFFCURVE",
"846 988 CURVE",
"842 988 LINE",
"746 913 OFFCURVE",
"684 846 CURVE SMOOTH",
"613 771 OFFCURVE",
"584 710 CURVE SMOOTH",
"545 631 OFFCURVE",
"547 565 CURVE SMOOTH",
"549 503 OFFCURVE",
"594 398 CURVE SMOOTH",
"624 328 OFFCURVE",
"746 198 OFFCURVE",
"842 123 CURVE",
"846 123 LINE",
"990 235 OFFCURVE",
"1056 331 CURVE SMOOTH",
"1137 448 OFFCURVE",
"1137 561 CURVE SMOOTH",
"1137 660 OFFCURVE",
"1055 780 CURVE SMOOTH"
);
}
);
width = 1678;
}
);
},
{
glyphname = uni10CC4.ltr;
layers = (
{
layerId = "10FB5B92-D81B-4903-B019-4239E442CDDF";
paths = (
{
closed = 1;
nodes = (
"509 1 LINE",
"509 896 LINE",
"256 691 LINE",
"158 793 LINE",
"538 1098 LINE",
"652 1098 LINE",
"1033 793 LINE",
"935 691 LINE",
"682 896 LINE",
"682 1 LINE"
);
}
);
width = 1191;
}
);
},
{
glyphname = uni10CC5.ltr;
layers = (
{
layerId = "10FB5B92-D81B-4903-B019-4239E442CDDF";
paths = (
{
closed = 1;
nodes = (
"538 2 LINE",
"158 306 LINE",
"256 413 LINE",
"509 208 LINE",
"509 897 LINE",
"256 692 LINE",
"158 795 LINE",
"538 1100 LINE",
"652 1100 LINE",
"1033 795 LINE",
"935 692 LINE",
"682 897 LINE",
"682 208 LINE",
"935 413 LINE",
"1033 306 LINE",
"652 2 LINE"
);
}
);
width = 1191;
}
);
},
{
glyphname = uni10CC6.ltr;
layers = (
{
layerId = "10FB5B92-D81B-4903-B019-4239E442CDDF";
paths = (
{
closed = 1;
nodes = (
"866 0 LINE",
"340 312 LINE",
"340 0 LINE",
"170 0 LINE",
"170 1098 LINE",
"322 1098 LINE",
"848 782 LINE",
"848 1098 LINE",
"1017 1098 LINE",
"1017 0 LINE"
);
},
{
closed = 1;
nodes = (
"848 626 LINE",
"340 933 LINE",
"340 468 LINE",
"848 167 LINE"
);
}
);
width = 1187;
}
);
},
{
glyphname = uni10CC7.ltr;
layers = (
{
layerId = "10FB5B92-D81B-4903-B019-4239E442CDDF";
paths = (
{
closed = 1;
nodes = (
"455 2 LINE",
"455 534 LINE",
"158 673 LINE",
"223 798 LINE",
"455 688 LINE",
"455 1100 LINE",
"628 1100 LINE",
"628 604 LINE",
"925 463 LINE",
"857 343 LINE",
"628 452 LINE",
"628 2 LINE"
);
}
);
width = 1083;
}
);
},
{
glyphname = uni10CC8.ltr;
layers = (
{
layerId = "10FB5B92-D81B-4903-B019-4239E442CDDF";
paths = (
{
closed = 1;
nodes = (
"1015 2 LINE",
"691 466 LINE",
"372 2 LINE",
"170 2 LINE",
"561 545 LINE",
"234 631 LINE",
"264 748 LINE",
"503 684 LINE",
"200 1099 LINE",
"388 1099 LINE",
"685 683 LINE",
"981 1099 LINE",
"1179 1099 LINE",
"812 604 LINE",
"1157 512 LINE",
"1111 400 LINE",
"868 465 LINE",
"1203 2 LINE"
);
}
);
width = 1373;
}
);
},
{
glyphname = uni10CC9.ltr;
layers = (
{
layerId = "10FB5B92-D81B-4903-B019-4239E442CDDF";
paths = (
{
closed = 1;
nodes = (
"214 832 OFFCURVE",
"301 898 CURVE",
"171 999 LINE",
"257 1103 LINE",
"420 974 LINE",
"527 1035 OFFCURVE",
"687 1098 CURVE",
"777 983 LINE",
"707 954 OFFCURVE",
"592 901 OFFCURVE",
"544 877 CURVE",
"697 756 LINE",
"602 662 LINE",
"424 801 LINE",
"345 742 OFFCURVE",
"310 686 CURVE SMOOTH",
"277 634 OFFCURVE",
"277 568 CURVE SMOOTH",
"277 482 OFFCURVE",
"309 409 CURVE SMOOTH",
"333 357 OFFCURVE",
"424 289 CURVE",
"602 429 LINE",
"697 334 LINE",
"546 214 LINE",
"637 165 OFFCURVE",
"769 115 CURVE",
"695 0 LINE",
"536 61 OFFCURVE",
"426 122 CURVE",
"267 -2 LINE",
"181 102 LINE",
"307 198 LINE",
"205 272 OFFCURVE",
"159 358 CURVE SMOOTH",
"114 442 OFFCURVE",
"113 580 CURVE",
"113 704 OFFCURVE",
"157 760 CURVE SMOOTH"
);
}
);
width = 845;
}
);
},
{
glyphname = uni10CCA.ltr;
layers = (
{
layerId = "10FB5B92-D81B-4903-B019-4239E442CDDF";
paths = (
{
closed = 1;
nodes = (
"742 288 OFFCURVE",
"638 210 CURVE",
"682 188 OFFCURVE",
"784 144 OFFCURVE",
"843 120 CURVE",
"770 4 LINE",
"612 67 OFFCURVE",
"505 125 CURVE",
"398 67 OFFCURVE",
"240 4 CURVE",
"240 4 OFFCURVE",
"166 120 CURVE",
"226 144 OFFCURVE",
"327 187 OFFCURVE",
"371 210 CURVE",
"273 285 OFFCURVE",
"230 368 CURVE SMOOTH",
"174 479 OFFCURVE",
"174 574 CURVE SMOOTH",
"174 645 OFFCURVE",
"231 740 CURVE SMOOTH",
"286 832 OFFCURVE",
"365 895 CURVE",
"321 917 OFFCURVE",
"220 964 OFFCURVE",
"158 989 CURVE",
"248 1102 LINE",
"398 1043 OFFCURVE",
"505 983 CURVE",
"613 1044 OFFCURVE",
"762 1102 CURVE",
"851 989 LINE",
"789 965 OFFCURVE",
"688 918 OFFCURVE",
"644 895 CURVE",
"738 822 OFFCURVE",
"780 740 CURVE SMOOTH",
"818 665 OFFCURVE",
"818 590 CURVE SMOOTH",
"818 449 OFFCURVE",
"779 367 CURVE SMOOTH"
);
},
{
closed = 1;
nodes = (
"580 785 OFFCURVE",
"505 841 CURVE",
"439 793 OFFCURVE",
"396 724 CURVE SMOOTH",
"348 647 OFFCURVE",
"346 586 CURVE SMOOTH",
"344 528 OFFCURVE",
"386 442 CURVE SMOOTH",
"411 390 OFFCURVE",
"505 319 CURVE",
"583 378 OFFCURVE",
"618 442 CURVE SMOOTH",
"662 520 OFFCURVE",
"662 582 CURVE SMOOTH",
"662 651 OFFCURVE",
"618 723 CURVE SMOOTH"
);
}
);
width = 1009;
}
);
},
{
glyphname = uni10CCB.ltr;
layers = (
{
layerId = "10FB5B92-D81B-4903-B019-4239E442CDDF";
paths = (
{
closed = 1;
nodes = (
"242 818 OFFCURVE",
"392 899 CURVE",
"230 1004 LINE",
"332 1099 LINE",
"655 879 LINE",
"543 829 LINE SMOOTH",
"411 770 OFFCURVE",
"340 694 CURVE SMOOTH",
"277 627 OFFCURVE",
"278 553 CURVE SMOOTH",
"279 482 OFFCURVE",
"333 419 CURVE SMOOTH",
"396 345 OFFCURVE",
"515 290 CURVE SMOOTH",
"655 225 LINE",
"332 1 LINE",
"230 100 LINE",
"390 208 LINE",
"237 289 OFFCURVE",
"172 371 CURVE SMOOTH",
"113 445 OFFCURVE",
"113 566 CURVE SMOOTH",
"113 664 OFFCURVE",
"171 734 CURVE SMOOTH"
);
}
);
width = 723;
}
);
},
{
glyphname = uni10CCC.ltr;
layers = (
{
layerId = "10FB5B92-D81B-4903-B019-4239E442CDDF";
paths = (
{
closed = 1;
nodes = (
"554 974 LINE",
"448 893 OFFCURVE",
"385 823 CURVE",
"556 639 LINE",
"728 823 LINE",
"664 893 OFFCURVE",
"558 974 CURVE"
);
},
{
closed = 1;
nodes = (
"823 140 OFFCURVE",
"624 1 CURVE",
"624 1 OFFCURVE",
"487 1 CURVE",
"317 119 OFFCURVE",
"214 249 CURVE SMOOTH",
"102 392 OFFCURVE",
"102 564 CURVE SMOOTH",
"102 726 OFFCURVE",
"214 852 CURVE",
"329 990 OFFCURVE",
"487 1099 CURVE",
"624 1099 LINE",
"794 981 OFFCURVE",
"898 852 CURVE SMOOTH",
"994 732 OFFCURVE",
"994 566 CURVE SMOOTH",
"994 386 OFFCURVE",
"898 248 CURVE SMOOTH"
);
},
{
closed = 1;
nodes = (
"469 547 LINE",
"309 719 LINE",
"273 642 OFFCURVE",
"273 551 CURVE SMOOTH",
"273 458 OFFCURVE",
"309 381 CURVE"
);
},
{
closed = 1;
nodes = (
"644 547 LINE",
"803 383 LINE",
"839 460 OFFCURVE",
"839 551 CURVE SMOOTH",
"839 641 OFFCURVE",
"803 718 CURVE"
);
},
{
closed = 1;
nodes = (
"558 119 LINE",
"664 200 OFFCURVE",
"728 270 CURVE",
"728 270 OFFCURVE",
"556 454 CURVE",
"385 270 LINE",
"448 200 OFFCURVE",
"554 119 CURVE"
);
}
);
width = 1113;
}
);
},
{
glyphname = uni10CCD.ltr;
layers = (
{
layerId = "10FB5B92-D81B-4903-B019-4239E442CDDF";
paths = (
{
closed = 1;
nodes = (
"940 0 LINE",
"647 681 LINE SMOOTH",
"610 767 OFFCURVE",
"594 812 CURVE SMOOTH",
"576 862 OFFCURVE",
"564 910 CURVE",
"556 910 LINE",
"544 864 OFFCURVE",
"524 806 CURVE SMOOTH",
"503 746 OFFCURVE",
"476 681 CURVE",
"476 681 OFFCURVE",
"444 605 CURVE",
"699 0 LINE",
"526 0 LINE",
"360 413 LINE",
"183 0 LINE",
"5 0 LINE",
"490 1098 LINE",
"631 1098 LINE",
"1114 0 LINE"
);
}
);
width = 1119;
}
);
},
{
glyphname = uni10CCE.ltr;
layers = (
{
layerId = "10FB5B92-D81B-4903-B019-4239E442CDDF";
paths = (
{
closed = 1;
nodes = (
"459 2 LINE",
"459 341 LINE",
"158 502 LINE",
"216 618 LINE",
"459 495 LINE",
"459 685 LINE",
"158 844 LINE",
"216 960 LINE",
"459 834 LINE",
"459 1100 LINE",
"632 1100 LINE",
"632 752 LINE",
"933 596 LINE",
"863 482 LINE",
"632 604 LINE",
"632 411 LINE",
"933 255 LINE",
"863 142 LINE",
"632 260 LINE",
"632 2 LINE"
);
}
);
width = 1091;
}
);
},
{
glyphname = uni10CCF.ltr;
layers = (
{
layerId = "10FB5B92-D81B-4903-B019-4239E442CDDF";
paths = (
{
closed = 1;
nodes = (
"844 3 LINE",
"613 196 LINE",
"380 3 LINE",
"166 3 LINE",
"503 285 LINE",
"158 573 LINE",
"501 837 LINE",
"162 1101 LINE",
"378 1101 LINE",
"613 922 LINE",
"846 1101 LINE",
"1063 1101 LINE",
"722 837 LINE",
"1067 573 LINE",
"722 285 LINE",
"1059 3 LINE"
);
},
{
closed = 1;
nodes = (
"838 571 LINE",
"613 749 LINE",
"383 571 LINE",
"613 379 LINE"
);
}
);
width = 1225;
}
);
},
{
glyphname = uni10CD0.ltr;
layers = (
{
layerId = "10FB5B92-D81B-4903-B019-4239E442CDDF";
paths = (
{
closed = 1;
nodes = (
"459 0 LINE",
"459 752 LINE",
"158 906 LINE",
"216 1022 LINE",
"459 899 LINE",
"459 1098 LINE",
"632 1098 LINE",
"632 810 LINE",
"933 659 LINE",
"863 545 LINE",
"632 664 LINE",
"632 0 LINE"
);
}
);
width = 1091;
}
);
},
{
glyphname = uni10CD1.ltr;
layers = (
{
layerId = "10FB5B92-D81B-4903-B019-4239E442CDDF";
paths = (
{
closed = 1;
nodes = (
"453 4 LINE",
"453 970 LINE",
"158 1111 LINE",
"216 1220 LINE",
"981 856 LINE",
"911 749 LINE",
"626 885 LINE",
"626 4 LINE"
);
}
);
width = 1139;
}
);
},
{
glyphname = uni10CD2.ltr;
layers = (
{
layerId = "10FB5B92-D81B-4903-B019-4239E442CDDF";
paths = (
{
closed = 1;
nodes = (
"22 2 LINE",
"22 1100 LINE",
"175 1100 LINE",
"622 702 LINE",
"514 606 LINE",
"195 889 LINE",
"195 2 LINE"
);
}
);
width = 811;
}
);
},
{
glyphname = uni10CD3.ltr;
layers = (
{
layerId = "10FB5B92-D81B-4903-B019-4239E442CDDF";
paths = (
{
closed = 1;
nodes = (
"539 3 LINE",
"190 557 LINE",
"539 1101 LINE",
"690 1101 LINE",
"1041 557 LINE",
"690 3 LINE"
);
},
{
closed = 1;
nodes = (
"861 556 LINE",
"614 948 LINE",
"369 556 LINE",
"614 156 LINE"
);
}
);
width = 1231;
}
);
},
{
glyphname = uni10CD4.ltr;
layers = (
{
layerId = "10FB5B92-D81B-4903-B019-4239E442CDDF";
paths = (
{
closed = 1;
nodes = (
"539 0 LINE",
"158 304 LINE",
"256 411 LINE",
"509 206 LINE",
"509 1098 LINE",
"652 1098 LINE",
"1033 793 LINE",
"935 687 LINE",
"682 892 LINE",
"682 0 LINE"
);
}
);
width = 1191;
}
);
},
{
glyphname = uni10CD5.ltr;
layers = (
{
layerId = "10FB5B92-D81B-4903-B019-4239E442CDDF";
paths = (
{
closed = 1;
nodes = (
"631 436 LINE",
"336 3 LINE",
"5 132 LINE",
"66 245 LINE",
"256 168 LINE",
"536 561 LINE",
"266 936 LINE",
"74 857 LINE",
"13 972 LINE",
"346 1101 LINE",
"631 683 LINE",
"920 1102 LINE",
"1249 971 LINE",
"1187 856 LINE",
"998 936 LINE",
"727 561 LINE",
"1006 168 LINE",
"1197 245 LINE",
"1259 132 LINE",
"928 3 LINE"
);
}
);
width = 1264;
}
);
},
{
glyphname = uni10CD6.ltr;
layers = (
{
layerId = "10FB5B92-D81B-4903-B019-4239E442CDDF";
paths = (
{
closed = 1;
nodes = (
"1036 1 LINE",
"707 682 LINE SMOOTH",
"675 747 OFFCURVE",
"647 815 CURVE SMOOTH",
"624 870 OFFCURVE",
"610 914 CURVE",
"602 914 LINE",
"590 879 OFFCURVE",
"552 785 OFFCURVE",
"530 732 CURVE",
"871 1 LINE",
"704 1 LINE",
"449 560 LINE",
"367 390 LINE",
"540 1 LINE",
"373 1 LINE",
"283 216 LINE",
"181 1 LINE",
"5 1 LINE",
"536 1099 LINE",
"678 1099 LINE",
"1206 1 LINE"
);
}
);
width = 1211;
}
);
},
{
glyphname = uni10CD7.ltr;
layers = (
{
layerId = "10FB5B92-D81B-4903-B019-4239E442CDDF";
paths = (
{
closed = 1;
nodes = (
"102 386 OFFCURVE",
"102 566 CURVE SMOOTH",
"102 732 OFFCURVE",
"198 852 CURVE SMOOTH",
"302 981 OFFCURVE",
"472 1099 CURVE",
"609 1099 LINE",
"767 989 OFFCURVE",
"882 852 CURVE",
"994 726 OFFCURVE",
"994 564 CURVE SMOOTH",
"994 392 OFFCURVE",
"882 249 CURVE SMOOTH",
"780 119 OFFCURVE",
"609 1 CURVE",
"472 1 LINE",
"272 139 OFFCURVE",
"198 248 CURVE"
);
},
{
closed = 1;
nodes = (
"418 200 OFFCURVE",
"531 114 CURVE",
"535 114 LINE",
"654 208 OFFCURVE",
"709 273 CURVE",
"288 712 LINE",
"254 633 OFFCURVE",
"254 544 CURVE SMOOTH",
"254 425 OFFCURVE",
"276 370 CURVE SMOOTH",
"296 323 OFFCURVE",
"374 244 CURVE SMOOTH"
);
},
{
closed = 1;
nodes = (
"656 896 OFFCURVE",
"542 982 CURVE",
"538 982 LINE",
"419 888 OFFCURVE",
"364 823 CURVE",
"785 384 LINE",
"819 463 OFFCURVE",
"819 552 CURVE SMOOTH",
"819 671 OFFCURVE",
"797 726 CURVE SMOOTH",
"778 773 OFFCURVE",
"700 852 CURVE SMOOTH"
);
}
);
width = 1113;
}
);
},
{
glyphname = uni10CD8.ltr;
layers = (
{
layerId = "10FB5B92-D81B-4903-B019-4239E442CDDF";
paths = (
{
closed = 1;
nodes = (
"170 1 LINE",
"170 1099 LINE",
"335 1099 LINE",
"843 876 LINE",
"843 695 LINE",
"560 554 LINE",
"843 425 LINE",
"843 243 LINE",
"327 1 LINE"
);
},
{
closed = 1;
nodes = (
"697 779 LINE",
"329 941 LINE",
"329 585 LINE"
);
},
{
closed = 1;
nodes = (
"697 340 LINE",
"329 522 LINE",
"329 172 LINE"
);
}
);
width = 956;
}
);
},
{
glyphname = uni10CD9.ltr;
layers = (
{
layerId = "10FB5B92-D81B-4903-B019-4239E442CDDF";
paths = (
{
closed = 1;
nodes = (
"277 640 OFFCURVE",
"277 578 CURVE SMOOTH",
"277 484 OFFCURVE",
"330 392 CURVE SMOOTH",
"372 321 OFFCURVE",
"579 193 OFFCURVE",
"767 120 CURVE",
"693 4 OFFCURVE",
"693 4 CURVE",
"481 87 OFFCURVE",
"227 250 OFFCURVE",
"169 342 CURVE SMOOTH",
"113 432 OFFCURVE",
"113 570 CURVE SMOOTH",
"113 679 OFFCURVE",
"169 765 CURVE SMOOTH",
"231 861 OFFCURVE",
"352 938 CURVE SMOOTH",
"477 1019 OFFCURVE",
"685 1102 CURVE",
"775 986 LINE",
"583 908 OFFCURVE",
"478 843 CURVE SMOOTH",
"390 789 OFFCURVE",
"330 710 CURVE SMOOTH"
);
}
);
width = 843;
}
);
},
{
glyphname = uni10CDA.ltr;
layers = (
{
layerId = "10FB5B92-D81B-4903-B019-4239E442CDDF";
paths = (
{
closed = 1;
nodes = (
"113 714 OFFCURVE",
"224 893 OFFCURVE",
"316 976 CURVE",
"440 1085 OFFCURVE",
"630 1099 CURVE",
"799 1099 LINE",
"799 1 LINE",
"630 1 LINE",
"436 28 OFFCURVE",
"334 130 CURVE SMOOTH",
"211 255 OFFCURVE",
"172 326 CURVE SMOOTH",
"113 436 OFFCURVE",
"113 558 CURVE SMOOTH"
);
},
{
closed = 1;
nodes = (
"281 724 OFFCURVE",
"279 560 CURVE SMOOTH",
"277 424 OFFCURVE",
"350 331 CURVE SMOOTH",
"470 180 OFFCURVE",
"630 161 CURVE",
"630 937 LINE",
"450 904 OFFCURVE",
"394 846 CURVE"
);
}
);
width = 969;
}
);
},
{
glyphname = uni10CDB.ltr;
layers = (
{
layerId = "10FB5B92-D81B-4903-B019-4239E442CDDF";
paths = (
{
closed = 1;
nodes = (
"237 869 OFFCURVE",
"282 908 CURVE SMOOTH",
"416 1027 OFFCURVE",
"525 1101 CURVE",
"882 812 LINE",
"766 713 LINE",
"523 912 LINE",
"434 846 OFFCURVE",
"330 728 OFFCURVE",
"308 669 CURVE SMOOTH",
"286 609 OFFCURVE",
"286 544 CURVE SMOOTH",
"286 439 OFFCURVE",
"336 354 CURVE SMOOTH",
"385 270 OFFCURVE",
"509 180 CURVE",
"766 388 LINE",
"882 289 LINE",
"525 3 LINE",
"317 135 OFFCURVE",
"220 273 CURVE SMOOTH",
"120 415 OFFCURVE",
"110 536 CURVE SMOOTH",
"100 652 OFFCURVE",
"162 750 CURVE SMOOTH"
);
}
);
width = 950;
}
);
},
{
glyphname = uni10CDC.ltr;
layers = (
{
layerId = "10FB5B92-D81B-4903-B019-4239E442CDDF";
paths = (
{
closed = 1;
nodes = (
"278 616 OFFCURVE",
"282 550 CURVE SMOOTH",
"289 432 OFFCURVE",
"335 354 CURVE SMOOTH",
"385 270 OFFCURVE",
"515 178 CURVE",
"733 362 LINE",
"537 539 LINE",
"651 640 LINE",
"958 353 LINE",
"533 3 LINE",
"319 135 OFFCURVE",
"113 383 OFFCURVE",
"113 545 CURVE SMOOTH",
"113 643 OFFCURVE",
"154 732 CURVE SMOOTH",
"195 820 OFFCURVE",
"377 999 OFFCURVE",
"533 1101 CURVE",
"641 990 LINE",
"504 901 OFFCURVE",
"426 829 CURVE SMOOTH",
"354 762 OFFCURVE",
"316 689 CURVE SMOOTH"
);
}
);
width = 1026;
}
);
},
{
glyphname = uni10CDD.ltr;
layers = (
{
layerId = "10FB5B92-D81B-4903-B019-4239E442CDDF";
paths = (
{
closed = 1;
nodes = (
"203 105 LINE",
"551 388 LINE",
"158 707 LINE",
"622 1098 LINE",
"736 995 LINE",
"369 700 LINE",
"764 382 LINE",
"306 2 LINE"
);
}
);
width = 922;
}
);
},
{
glyphname = uni10CDE.ltr;
layers = (
{
layerId = "10FB5B92-D81B-4903-B019-4239E442CDDF";
paths = (
{
closed = 1;
nodes = (
"587 2 LINE",
"587 552 LINE",
"208 2 LINE",
"5 2 LINE",
"414 565 LINE",
"19 1100 LINE",
"212 1100 LINE",
"587 567 LINE",
"587 1100 LINE",
"760 1100 LINE",
"760 2 LINE"
);
}
);
width = 930;
}
);
},
{
glyphname = uni10CDF.ltr;
layers = (
{
layerId = "10FB5B92-D81B-4903-B019-4239E442CDDF";
paths = (
{
closed = 1;
nodes = (
"609 4 LINE",
"523 56 OFFCURVE",
"390 155 OFFCURVE",
"340 206 CURVE",
"203 106 LINE",
"113 192 LINE",
"261 301 LINE",
"189 413 OFFCURVE",
"189 546 CURVE SMOOTH",
"189 612 OFFCURVE",
"225 735 OFFCURVE",
"265 796 CURVE",
"119 906 LINE",
"209 988 LINE",
"342 891 LINE",
"390 941 OFFCURVE",
"521 1045 OFFCURVE",
"609 1102 CURVE",
"717 991 LINE",
"552 884 OFFCURVE",
"470 798 CURVE",
"470 798 OFFCURVE",
"556 735 CURVE",
"464 649 LINE",
"396 699 LINE",
"376 661 OFFCURVE",
"368 623 CURVE SMOOTH",
"360 584 OFFCURVE",
"360 546 CURVE SMOOTH",
"360 467 OFFCURVE",
"390 396 CURVE",
"462 448 LINE",
"554 363 LINE",
"458 294 LINE",
"507 238 OFFCURVE",
"591 179 CURVE",
"809 363 LINE",
"613 540 LINE",
"727 641 LINE",
"1034 354 LINE"
);
}
);
width = 1102;
}
);
},
{
glyphname = uni10CE0.ltr;
layers = (
{
layerId = "10FB5B92-D81B-4903-B019-4239E442CDDF";
paths = (
{
closed = 1;
nodes = (
"328 263 LINE",
"328 2 LINE",
"158 2 LINE",
"158 1100 LINE",
"308 1100 LINE",
"788 737 LINE",
"688 641 LINE",
"328 918 LINE",
"328 753 LINE",
"788 412 LINE",
"688 314 LINE",
"328 590 LINE",
"328 425 LINE",
"788 85 LINE",
"688 -14 LINE"
);
}
);
width = 946;
}
);
},
{
glyphname = uni10CE1.ltr;
layers = (
{
layerId = "10FB5B92-D81B-4903-B019-4239E442CDDF";
paths = (
{
closed = 1;
nodes = (
"1030 862 OFFCURVE",
"883 978 CURVE",
"879 978 LINE",
"783 903 OFFCURVE",
"721 836 CURVE SMOOTH",
"650 761 OFFCURVE",
"620 700 CURVE SMOOTH",
"582 621 OFFCURVE",
"584 555 CURVE SMOOTH",
"586 493 OFFCURVE",
"632 388 CURVE",
"661 318 OFFCURVE",
"783 188 OFFCURVE",
"879 113 CURVE",
"883 113 LINE",
"1027 225 OFFCURVE",
"1094 321 CURVE SMOOTH",
"1174 438 OFFCURVE",
"1174 551 CURVE SMOOTH",
"1174 650 OFFCURVE",
"1092 770 CURVE SMOOTH"
);
},
{
closed = 1;
nodes = (
"1219 850 LINE",
"1255 823 OFFCURVE",
"1322 670 CURVE SMOOTH",
"1327 660 OFFCURVE",
"1331 569 CURVE",
"1602 441 LINE",
"1526 318 LINE",
"1315 423 LINE",
"1301 371 OFFCURVE",
"1251 277 OFFCURVE",
"1217 232 CURVE",
"1409 65 LINE",
"1291 -33 LINE",
"1121 129 LINE",
"1083 96 OFFCURVE",
"999 30 OFFCURVE",
"953 -1 CURVE",
"816 -1 LINE",
"770 30 OFFCURVE",
"687 94 OFFCURVE",
"651 129 CURVE",
"481 -33 LINE",
"364 65 LINE",
"555 232 LINE",
"483 324 OFFCURVE",
"457 423 CURVE",
"246 318 LINE",
"170 441 LINE",
"441 569 LINE",
"442 646 OFFCURVE",
"480 729 CURVE SMOOTH",
"511 797 OFFCURVE",
"553 858 CURVE",
"306 743 LINE",
"236 867 LINE",
"814 1097 LINE",
"957 1097 LINE",
"1536 867 LINE",
"1466 743 LINE"
);
}
);
width = 1772;
}
);
},
{
glyphname = uni10CE2.ltr;
layers = (
{
layerId = "10FB5B92-D81B-4903-B019-4239E442CDDF";
paths = (
{
closed = 1;
nodes = (
"868 1 LINE",
"868 322 LINE",
"344 634 LINE",
"344 1 LINE",
"170 1 LINE",
"170 1099 LINE",
"344 1099 LINE",
"344 797 LINE",
"868 485 LINE",
"868 1099 LINE",
"1041 1099 LINE",
"1041 1 LINE"
);
}
);
width = 1211;
}
);
},
{
glyphname = uni10CE3.ltr;
layers = (
{
layerId = "10FB5B92-D81B-4903-B019-4239E442CDDF";
paths = (
{
closed = 1;
nodes = (
"158 702 LINE",
"237 826 LINE",
"919 469 LINE",
"841 344 LINE"
);
}
);
width = 1077;
}
);
},
{
glyphname = uni10CE4.ltr;
layers = (
{
layerId = "10FB5B92-D81B-4903-B019-4239E442CDDF";
paths = (
{
closed = 1;
nodes = (
"940 2 LINE",
"647 683 LINE SMOOTH",
"638 704 OFFCURVE",
"595 813 CURVE",
"576 864 OFFCURVE",
"564 912 CURVE",
"556 912 LINE",
"544 866 OFFCURVE",
"524 809 CURVE SMOOTH",
"499 738 OFFCURVE",
"476 683 CURVE SMOOTH",
"183 2 LINE",
"5 2 LINE",
"490 1098 LINE",
"631 1098 LINE",
"1114 2 LINE"
);
}
);
width = 1119;
}
);
},
{
glyphname = uni10CE5.ltr;
layers = (
{
layerId = "10FB5B92-D81B-4903-B019-4239E442CDDF";
paths = (
{
closed = 1;
nodes = (
"158 2 LINE",
"158 1100 LINE",
"331 1100 LINE",
"331 2 LINE"
);
}
);
width = 489;
}
);
},
{
glyphname = uni10CE6.ltr;
layers = (
{
layerId = "10FB5B92-D81B-4903-B019-4239E442CDDF";
paths = (
{
closed = 1;
nodes = (
"76 1 LINE",
"76 1099 LINE",
"250 1099 LINE",
"250 679 LINE",
"612 1096 LINE",
"742 991 LINE",
"250 440 LINE",
"250 1 LINE"
);
}
);
width = 931;
}
);
},
{
glyphname = uni10CE7.ltr;
layers = (
{
layerId = "10FB5B92-D81B-4903-B019-4239E442CDDF";
paths = (
{
closed = 1;
nodes = (
"716 6 LINE",
"716 627 LINE",
"427 915 LINE",
"273 771 LINE",
"170 867 LINE",
"433 1104 LINE",
"716 819 LINE",
"716 1104 LINE",
"886 1104 LINE",
"886 817 LINE",
"1167 1104 LINE",
"1432 867 LINE",
"1326 771 LINE",
"1175 915 LINE",
"886 625 LINE",
"886 6 LINE"
);
}
);
width = 1602;
}
);
},
{
glyphname = uni10CE8.ltr;
layers = (
{
layerId = "10FB5B92-D81B-4903-B019-4239E442CDDF";
paths = (
{
closed = 1;
nodes = (
"850 3 LINE",
"526 467 LINE",
"430 328 LINE",
"653 3 LINE",
"480 3 LINE",
"344 203 LINE",
"207 3 LINE",
"5 3 LINE",
"418 577 LINE",
"35 1098 LINE",
"223 1098 LINE",
"520 684 LINE",
"609 807 LINE",
"406 1098 LINE",
"581 1098 LINE",
"695 930 LINE",
"816 1098 LINE",
"1014 1098 LINE",
"625 573 LINE",
"1038 3 LINE"
);
}
);
width = 1043;
}
);
},
{
glyphname = uni10CE9.ltr;
layers = (
{
layerId = "10FB5B92-D81B-4903-B019-4239E442CDDF";
paths = (
{
closed = 1;
nodes = (
"68 89 LINE",
"442 577 LINE",
"129 1004 LINE",
"241 1098 LINE",
"635 991 LINE",
"595 866 LINE",
"362 932 LINE",
"530 696 LINE",
"829 1098 LINE",
"1027 1098 LINE",
"638 573 LINE",
"1051 3 LINE",
"863 3 LINE",
"529 458 LINE",
"308 155 LINE",
"557 227 LINE",
"600 102 LINE",
"196 -5 LINE"
);
}
);
width = 1056;
}
);
},
{
glyphname = uni10CEA.ltr;
layers = (
{
layerId = "10FB5B92-D81B-4903-B019-4239E442CDDF";
paths = (
{
closed = 1;
nodes = (
"958 1 LINE",
"641 211 LINE",
"328 1 LINE",
"170 1 LINE",
"170 1099 LINE",
"328 1099 LINE",
"641 889 LINE",
"958 1099 LINE",
"1111 1099 LINE",
"1111 1 LINE"
);
},
{
closed = 1;
nodes = (
"942 913 LINE",
"641 720 LINE",
"340 913 LINE",
"340 185 LINE",
"641 379 LINE",
"942 185 LINE"
);
}
);
width = 1281;
}
);
},
{
glyphname = uni10CEB.ltr;
layers = (
{
layerId = "10FB5B92-D81B-4903-B019-4239E442CDDF";
paths = (
{
closed = 1;
nodes = (
"1052 -1 LINE",
"687 445 LINE",
"316 -1 LINE",
"170 -1 LINE",
"170 1097 LINE",
"316 1097 LINE",
"687 647 LINE",
"1052 1097 LINE",
"1207 1097 LINE",
"1207 -1 LINE"
);
},
{
closed = 1;
nodes = (
"594 549 LINE",
"326 862 LINE",
"320 862 LINE",
"320 231 LINE",
"326 231 LINE"
);
},
{
closed = 1;
nodes = (
"1048 852 LINE",
"1042 852 LINE",
"781 549 LINE",
"1042 239 LINE",
"1048 239 LINE"
);
}
);
width = 1377;
}
);
},
{
glyphname = uni10CEC.ltr;
layers = (
{
layerId = "10FB5B92-D81B-4903-B019-4239E442CDDF";
paths = (
{
closed = 1;
nodes = (
"766 187 OFFCURVE",
"836 260 CURVE SMOOTH",
"887 313 OFFCURVE",
"927 396 CURVE SMOOTH",
"973 489 OFFCURVE",
"975 568 CURVE SMOOTH",
"976 620 OFFCURVE",
"933 710 CURVE SMOOTH",
"904 771 OFFCURVE",
"840 852 CURVE SMOOTH",
"749 967 OFFCURVE",
"670 963 CURVE SMOOTH",
"602 960 OFFCURVE",
"518 852 CURVE SMOOTH",
"454 771 OFFCURVE",
"425 710 CURVE SMOOTH",
"382 620 OFFCURVE",
"383 568 CURVE SMOOTH",
"385 489 OFFCURVE",
"431 396 CURVE SMOOTH",
"469 318 OFFCURVE",
"522 260 CURVE SMOOTH",
"541 239 OFFCURVE",
"680 120 CURVE"
);
},
{
closed = 1;
nodes = (
"301 805 OFFCURVE",
"348 864 CURVE",
"170 1027 LINE",
"288 1125 LINE",
"445 968 LINE",
"515 1034 OFFCURVE",
"610 1101 CURVE",
"748 1101 LINE",
"842 1035 OFFCURVE",
"915 968 CURVE",
"1075 1125 LINE",
"1193 1027 LINE",
"1013 864 LINE",
"1069 789 OFFCURVE",
"1095 717 CURVE SMOOTH",
"1120 649 OFFCURVE",
"1120 572 CURVE SMOOTH",
"1120 450 OFFCURVE",
"1095 386 CURVE SMOOTH",
"1065 309 OFFCURVE",
"1013 239 CURVE",
"1193 73 LINE",
"1075 -25 LINE",
"915 133 LINE",
"877 100 OFFCURVE",
"794 34 OFFCURVE",
"748 3 CURVE",
"610 3 LINE",
"519 67 OFFCURVE",
"445 133 CURVE",
"288 -25 LINE",
"170 73 LINE",
"348 239 LINE",
"294 309 OFFCURVE",
"265 386 CURVE SMOOTH",
"228 485 OFFCURVE",
"228 576 CURVE SMOOTH",
"228 629 OFFCURVE",
"265 718 CURVE SMOOTH"
);
}
);
width = 1363;
}
);
},
{
glyphname = uni10CED.ltr;
layers = (
{
layerId = "10FB5B92-D81B-4903-B019-4239E442CDDF";
paths = (
{
closed = 1;
nodes = (
"170 1 LINE",
"170 835 LINE",
"340 835 LINE",
"804 496 LINE",
"804 1098 LINE",
"977 1098 LINE",
"977 307 LINE",
"810 307 LINE",
"344 646 LINE",
"344 1 LINE"
);
}
);
width = 1147;
}
);
},
{
glyphname = uni10CEE.ltr;
layers = (
{
layerId = "10FB5B92-D81B-4903-B019-4239E442CDDF";
paths = (
{
closed = 1;
nodes = (
"942 0 LINE",
"942 912 LINE",
"641 719 LINE",
"340 912 LINE",
"340 0 LINE",
"170 0 LINE",
"170 1098 LINE",
"328 1098 LINE",
"641 888 LINE",
"958 1098 LINE",
"1111 1098 LINE",
"1111 0 LINE"
);
}
);
width = 1281;
}
);
},
{
glyphname = uni10CEF.ltr;
layers = (
{
layerId = "10FB5B92-D81B-4903-B019-4239E442CDDF";
paths = (
{
closed = 1;
nodes = (
"848 48 LINE",
"340 365 LINE",
"340 48 LINE",
"170 48 LINE",
"170 1149 LINE",
"340 1149 LINE",
"848 831 LINE",
"848 1149 LINE",
"1017 1149 LINE",
"1017 48 LINE"
);
},
{
closed = 1;
nodes = (
"848 683 LINE",
"340 1000 LINE",
"340 831 LINE",
"848 514 LINE"
);
},
{
closed = 1;
nodes = (
"848 365 LINE",
"340 683 LINE",
"340 514 LINE",
"848 197 LINE"
);
}
);
width = 1187;
}
);
},
{
glyphname = uni10CF0.ltr;
layers = (
{
layerId = "10FB5B92-D81B-4903-B019-4239E442CDDF";
paths = (
{
closed = 1;
nodes = (
"657 2 LINE",
"657 477 LINE",
"170 1014 LINE",
"306 1100 LINE",
"657 706 LINE",
"657 1100 LINE",
"831 1100 LINE",
"831 706 LINE",
"1167 1100 LINE",
"1305 1014 LINE",
"831 477 LINE",
"831 2 LINE"
);
}
);
width = 1475;
}
);
},
{
glyphname = uni10CF1.ltr;
layers = (
{
layerId = "10FB5B92-D81B-4903-B019-4239E442CDDF";
paths = (
{
closed = 1;
nodes = (
"731 4 LINE",
"441 280 LINE",
"263 157 LINE",
"170 258 LINE",
"447 453 LINE",
"731 181 LINE",
"731 356 LINE",
"441 617 LINE",
"263 492 LINE",
"170 595 LINE",
"447 785 LINE",
"731 523 LINE",
"731 692 LINE",
"441 953 LINE",
"263 830 LINE",
"170 931 LINE",
"447 1126 LINE",
"731 861 LINE",
"731 1102 LINE",
"900 1102 LINE",
"900 861 LINE",
"1181 1126 LINE",
"1458 931 LINE",
"1364 830 LINE",
"1187 953 LINE",
"900 692 LINE",
"900 523 LINE",
"1181 785 LINE",
"1458 595 LINE",
"1364 492 LINE",
"1187 617 LINE",
"900 356 LINE",
"900 181 LINE",
"1181 453 LINE",
"1458 258 LINE",
"1364 157 LINE",
"1187 280 LINE",
"900 4 LINE"
);
}
);
width = 1628;
}
);
},
{
glyphname = uni10CF2.ltr;
layers = (
{
layerId = "10FB5B92-D81B-4903-B019-4239E442CDDF";
paths = (
{
closed = 1;
nodes = (
"823 140 OFFCURVE",
"624 1 CURVE",
"487 1 LINE",
"317 119 OFFCURVE",
"214 249 CURVE SMOOTH",
"102 392 OFFCURVE",
"102 564 CURVE SMOOTH",
"102 726 OFFCURVE",
"214 852 CURVE",
"329 990 OFFCURVE",
"487 1099 CURVE",
"624 1099 LINE",
"794 981 OFFCURVE",
"898 852 CURVE SMOOTH",
"994 732 OFFCURVE",
"994 566 CURVE SMOOTH",
"994 386 OFFCURVE",
"898 248 CURVE SMOOTH"
);
},
{
closed = 1;
nodes = (
"730 842 OFFCURVE",
"635 922 CURVE",
"635 180 LINE",
"739 270 OFFCURVE",
"789 355 CURVE SMOOTH",
"861 477 OFFCURVE",
"861 562 CURVE SMOOTH",
"861 632 OFFCURVE",
"790 746 CURVE SMOOTH"
);
},
{
closed = 1;
nodes = (
"255 632 OFFCURVE",
"255 562 CURVE SMOOTH",
"255 477 OFFCURVE",
"327 355 CURVE SMOOTH",
"377 270 OFFCURVE",
"481 180 CURVE",
"481 922 LINE",
"386 842 OFFCURVE",
"326 746 CURVE SMOOTH"
);
}
);
width = 1113;
}
);
},
